<?xml version="1.0" standalone="no"?>
<!DOCTYPE svg PUBLIC "-//W3C//DTD SVG 20010904//EN"
 "http://www.w3.org/TR/2001/REC-SVG-20010904/DTD/svg10.dtd">
<svg version="1.0" xmlns="http://www.w3.org/2000/svg"
 width="740.000000pt" height="740.000000pt" viewBox="0 0 740.000000 740.000000"
 preserveAspectRatio="xMidYMid meet">

<g transform="translate(0.000000,740.000000) scale(0.100000,-0.100000)"
fill="#000000" stroke="none">
<path d="M4057 6371 c-23 -24 -42 -47 -42 -51 0 -5 -4 -12 -9 -17 -5 -5 -6 -3
-2 5 4 6 2 12 -3 12 -8 0 -11 -325 -11 -1074 l0 -1075 22 -7 c12 -3 30 -16 40
-28 9 -12 17 -15 18 -8 0 15 50 15 71 -1 29 -22 -1 -157 -35 -157 -8 0 -16 -6
-19 -14 -7 -17 -47 -10 -47 9 0 16 -35 47 -43 38 -4 -3 -7 -132 -7 -286 0
-154 2 -278 4 -276 2 2 6 20 9 39 5 45 26 78 52 86 11 4 23 11 26 17 4 5 19 7
33 3 15 -4 25 -10 22 -14 -3 -5 4 -13 15 -20 12 -8 19 -8 19 -2 0 11 52 8 82
-5 34 -14 0 -175 -37 -175 -8 0 -19 -9 -25 -20 -9 -17 -14 -18 -35 -8 -14 6
-25 16 -25 22 -1 19 -37 59 -44 48 -6 -10 -62 -2 -85 12 -8 5 -11 -45 -11
-182 l0 -189 27 -27 c15 -15 29 -23 31 -17 2 6 16 11 30 11 15 0 32 4 38 8 19
12 24 68 9 88 -18 24 -19 62 -2 97 12 27 23 32 63 28 12 -1 24 5 27 14 4 8 25
18 47 21 22 4 43 11 46 15 8 14 24 0 24 -22 0 -23 16 -25 37 -4 13 14 13 18
-1 40 -18 27 -21 80 -6 90 5 3 7 12 4 20 -7 17 23 33 56 30 14 -2 29 -4 34 -4
5 -1 2 -9 -7 -19 -23 -25 -21 -55 3 -77 12 -10 18 -25 15 -33 -4 -10 0 -12 11
-8 8 3 21 6 27 6 7 0 4 5 -5 11 -21 12 -24 62 -5 77 6 6 26 14 42 18 17 4 44
15 62 25 33 19 43 16 43 -13 0 -10 7 -18 16 -18 11 0 14 -6 9 -20 -4 -11 -2
-20 4 -20 6 0 11 7 11 16 0 14 7 15 42 10 51 -8 58 -13 58 -35 0 -10 9 -21 20
-24 18 -5 19 1 22 72 l3 76 135 0 135 0 0 -135 0 -135 -72 -3 c-40 -2 -73 -7
-73 -12 0 -4 -3 -16 -6 -24 -5 -12 -2 -15 10 -10 10 4 30 -4 50 -20 19 -14 40
-26 46 -26 7 0 9 -8 5 -21 -4 -11 -8 -43 -9 -70 -3 -46 -1 -49 22 -49 18 0 23
-4 18 -16 -4 -12 -1 -14 13 -9 11 3 22 1 26 -5 3 -5 15 -10 26 -10 11 0 47
-14 81 -31 55 -28 60 -33 45 -44 -9 -7 -17 -22 -17 -34 0 -12 -5 -32 -11 -43
-8 -14 -8 -18 0 -14 14 9 81 14 81 6 0 -4 -11 -33 -24 -66 -22 -54 -27 -59
-58 -62 l-34 -3 -3 -159 -2 -160 38 0 c39 0 39 0 35 35 -4 29 1 40 28 65 38
35 71 40 65 10 -2 -11 0 -20 6 -20 8 0 13 15 10 33 0 4 6 7 13 7 20 0 65 -60
72 -98 6 -29 8 -30 65 -34 65 -3 72 3 34 28 -34 22 -60 81 -43 101 8 10 8 17
0 25 -7 7 -12 15 -12 18 0 10 47 30 54 23 11 -11 66 -8 66 4 0 6 17 25 37 42
l37 31 31 -37 c39 -47 55 -86 44 -104 -5 -8 -6 -22 -3 -31 5 -16 -24 -40 -43
-37 -4 1 -18 1 -31 0 -18 -1 -22 -5 -17 -20 3 -11 1 -22 -5 -26 -5 -3 -10 -9
-10 -13 0 -4 187 -5 415 -2 l415 5 24 50 c13 28 42 68 65 90 l41 39 0 635 c0
605 -1 633 -17 614 -32 -35 -52 -35 -87 0 -42 41 -54 65 -52 102 2 45 12 54
56 49 28 -2 40 0 40 9 0 14 35 47 50 47 7 0 10 407 10 1175 0 646 -4 1175 -8
1175 -5 0 -29 20 -53 45 l-44 45 -1218 2 -1217 3 -43 -44z m1040 -268 c3 4 15
2 26 -4 13 -7 17 -7 13 -1 -3 6 -2 13 4 17 5 3 10 -1 10 -11 0 -13 3 -14 15
-4 12 10 18 10 30 0 8 -6 20 -8 27 -4 7 4 43 8 80 9 60 0 67 -2 62 -17 -3 -10
-1 -18 5 -18 6 0 11 6 11 14 0 19 17 29 31 20 8 -4 7 -9 -2 -15 -11 -7 -10 -9
4 -9 9 0 17 6 17 14 0 9 12 14 35 14 30 0 35 -3 30 -18 -4 -12 1 -19 15 -23
18 -5 19 -3 9 9 -17 20 5 44 23 26 9 -9 9 -12 -2 -12 -7 0 -10 -3 -7 -7 4 -3
16 2 27 12 23 21 44 9 38 -21 -3 -16 -13 -19 -61 -20 -52 -2 -57 0 -58 20 l-2
21 -4 -21 c-4 -19 -11 -21 -64 -22 -46 -1 -59 2 -59 14 0 8 -5 12 -10 9 -6 -4
-8 -10 -5 -15 3 -4 -15 -8 -40 -8 -25 1 -45 5 -45 10 0 5 6 6 13 2 8 -5 8 -2
-2 9 -19 23 -31 21 -32 -5 0 -13 -3 -18 -6 -11 -3 10 -9 10 -24 0 -17 -10 -23
-9 -35 7 -14 20 -14 20 -15 0 0 -11 -3 -14 -6 -6 -4 10 -8 10 -18 2 -10 -8
-19 -8 -34 -1 -12 7 -22 7 -26 1 -9 -14 -85 -6 -95 10 -8 13 -10 12 -10 -2 0
-10 -3 -18 -6 -18 -4 0 -13 8 -20 18 -13 16 -13 16 -14 0 0 -21 -16 -24 -23
-5 -4 9 -8 8 -16 -3 -8 -12 -11 -12 -17 4 -7 18 -8 18 -22 0 -10 -14 -16 -15
-19 -6 -4 10 -8 10 -19 2 -10 -9 -15 -6 -20 15 -3 14 -4 29 0 32 3 4 6 -2 6
-13 1 -18 1 -18 14 -1 13 16 14 16 20 1 6 -16 8 -15 21 2 13 18 14 18 21 1 5
-15 9 -16 15 -5 7 11 11 10 18 -2 9 -12 11 -12 17 3 5 13 10 15 20 6 7 -6 18
-8 25 -4 6 4 15 1 20 -6 6 -10 9 -11 9 -1 0 6 4 12 10 12 5 0 7 -6 4 -14 -3
-8 -1 -17 5 -21 7 -3 11 2 11 14 0 19 10 26 33 22 4 0 7 4 7 10 0 8 5 7 15 -1
9 -7 18 -10 22 -7z m528 -12 c-7 -23 5 -33 25 -20 8 5 11 9 6 9 -5 0 -3 7 4
15 8 10 17 12 29 6 10 -6 23 -6 33 0 11 6 19 6 23 -1 4 -6 13 -7 23 -1 17 9
69 7 79 -2 2 -3 3 -16 1 -29 l-5 -23 -10 25 -11 25 -10 -25 c-10 -24 -11 -24
-11 -2 -1 27 -21 30 -21 2 0 -11 -4 -20 -10 -20 -5 0 -10 6 -10 13 0 8 -4 7
-10 -3 -8 -12 -13 -13 -30 -2 -11 7 -20 8 -20 4 0 -5 -20 -9 -44 -9 -41 -1
-44 1 -48 28 -3 20 0 29 9 29 10 0 12 -7 8 -19z m-1190 -291 c0 -21 -5 -26
-32 -28 l-33 -3 0 -80 0 -79 -35 0 -35 0 0 80 0 80 -30 0 c-25 0 -30 4 -30 23
0 13 3 27 7 31 4 4 48 5 98 4 89 -3 90 -3 90 -28z m80 -80 l0 -105 -32 -3 -33
-3 0 111 0 111 33 -3 32 -3 0 -105z m210 87 l27 -22 -21 -19 c-17 -15 -24 -17
-33 -8 -16 16 -61 15 -76 0 -38 -38 12 -113 59 -88 17 9 27 9 45 -1 30 -16 30
-23 -1 -43 -31 -20 -83 -23 -122 -7 -53 22 -80 101 -52 152 30 56 127 77 174
36z m109 -21 l-1 -38 39 41 c28 29 48 41 68 41 43 0 43 -13 0 -55 -22 -22 -40
-42 -40 -46 0 -3 18 -29 40 -57 22 -27 40 -53 40 -56 0 -3 -17 -6 -37 -6 -32
0 -42 6 -62 35 -26 39 -41 45 -41 16 0 -37 -12 -51 -41 -51 l-29 0 0 111 0
110 33 -3 c30 -3 32 -5 31 -42z m326 14 c0 -29 -1 -30 -50 -30 -61 0 -67 -18
-7 -22 37 -3 42 -6 42 -28 0 -22 -5 -25 -42 -28 -29 -2 -43 -8 -43 -18 0 -10
14 -14 54 -14 51 0 53 -1 48 -25 -4 -24 -7 -25 -88 -25 l-84 0 0 110 0 110 85
0 85 0 0 -30z m205 0 c0 -21 -5 -26 -32 -28 l-33 -3 0 -80 0 -79 -30 0 -30 0
0 80 0 80 -30 0 c-32 0 -47 18 -36 45 5 13 22 15 98 13 92 -3 93 -3 93 -28z
m181 -6 c69 -87 65 -86 62 -24 l-3 55 30 0 30 0 3 -107 3 -108 -29 0 c-22 0
-36 11 -67 52 l-40 52 -3 -52 c-3 -50 -4 -52 -33 -52 l-29 0 0 110 c0 109 0
110 24 110 15 0 34 -13 52 -36z m334 -66 c25 -56 47 -105 48 -110 2 -4 -12 -8
-31 -8 -27 0 -37 5 -42 20 -5 16 -15 20 -50 20 -35 0 -45 -4 -50 -20 -5 -15
-15 -20 -40 -20 l-34 0 33 79 c57 131 63 141 94 141 25 0 31 -8 72 -102z m146
42 l37 -61 39 61 c31 49 43 61 61 58 21 -3 22 -8 25 -110 l3 -108 -30 0 c-29
0 -30 2 -33 48 l-3 47 -23 -37 c-13 -21 -30 -38 -38 -38 -8 0 -25 17 -37 38
l-22 37 -3 -47 c-3 -46 -5 -48 -33 -48 l-29 0 0 110 c0 110 0 110 24 110 19 0
33 -13 62 -60z m364 30 c0 -29 -1 -30 -50 -30 -33 0 -50 -4 -50 -13 0 -8 14
-11 45 -9 44 4 45 4 45 -27 0 -30 -1 -31 -45 -31 -33 0 -45 -4 -45 -15 0 -12
13 -15 55 -15 52 0 55 -1 55 -25 0 -25 -1 -25 -90 -25 l-90 0 0 103 c0 57 3
107 7 110 3 4 42 7 85 7 l78 0 0 -30z m-2032 -282 c-3 -7 -24 -14 -47 -16 -33
-3 -42 -7 -39 -20 2 -12 15 -18 41 -20 50 -4 48 -22 -3 -22 -33 0 -40 -3 -40
-20 0 -17 7 -20 45 -20 34 0 45 -4 45 -15 0 -13 -11 -15 -57 -13 l-58 3 -3 78
-3 77 61 0 c45 0 61 -3 58 -12z m62 -49 l24 -62 28 62 c15 33 32 61 38 61 15
0 13 -12 -19 -87 -16 -37 -36 -69 -44 -71 -9 -2 -25 23 -45 69 -36 80 -38 89
-19 89 7 0 23 -28 37 -61z m230 46 c0 -11 -11 -15 -40 -15 -33 0 -40 -3 -40
-20 0 -16 7 -20 35 -20 19 0 35 -4 35 -10 0 -5 -16 -10 -35 -10 -28 0 -35 -4
-35 -19 0 -16 8 -20 43 -23 60 -4 48 -22 -18 -26 l-55 -3 0 81 0 80 55 0 c42
0 55 -3 55 -15z m98 -36 l41 -50 3 47 c2 27 8 49 16 52 9 3 12 -17 12 -77 0
-45 -3 -81 -7 -81 -5 0 -29 23 -55 52 l-47 53 -1 -53 c0 -79 -24 -64 -28 18
-5 106 6 113 66 39z m222 36 c0 -9 -9 -15 -25 -15 -24 0 -25 -2 -25 -65 0 -51
-3 -65 -15 -65 -12 0 -15 14 -15 65 0 63 -1 65 -25 65 -16 0 -25 6 -25 15 0
12 14 15 65 15 51 0 65 -3 65 -15z m141 -37 l46 -52 1 48 c1 46 7 65 16 55 2
-2 5 -29 6 -59 4 -120 0 -123 -59 -49 -40 51 -41 51 -42 23 -2 -58 -4 -67 -16
-71 -10 -4 -13 16 -13 76 0 45 3 81 8 81 4 0 28 -23 53 -52z m219 -23 c32 -73
33 -113 3 -67 -21 30 -89 32 -98 2 -5 -16 -35 -30 -35 -16 0 19 73 156 83 156
7 0 28 -34 47 -75z m106 23 l31 -50 31 51 c18 28 36 51 42 51 6 0 10 -33 10
-80 0 -64 -3 -80 -15 -80 -11 0 -15 12 -15 48 l-1 47 -22 -37 c-12 -21 -26
-38 -30 -38 -4 0 -18 17 -30 38 l-22 37 -3 -47 c-2 -34 -7 -48 -18 -48 -11 0
-14 17 -14 80 0 96 11 102 56 28z m264 37 c0 -11 -11 -15 -40 -15 -33 0 -40
-3 -40 -20 0 -16 7 -20 35 -20 19 0 35 -4 35 -10 0 -5 -16 -10 -35 -10 -28 0
-35 -4 -35 -19 0 -16 8 -20 43 -23 60 -4 48 -22 -18 -26 l-55 -3 0 81 0 80 55
0 c42 0 55 -3 55 -15z m122 -17 c3 -30 6 -33 41 -36 36 -3 37 -3 37 32 0 25 4
36 15 36 12 0 15 -16 15 -80 0 -64 -3 -80 -15 -80 -10 0 -15 11 -15 35 0 34
-1 35 -40 35 -39 0 -40 -1 -40 -36 0 -24 -4 -34 -12 -32 -9 3 -14 31 -16 81
-2 63 0 77 12 77 9 0 16 -12 18 -32z m258 17 c0 -11 -11 -15 -40 -15 -33 0
-40 -3 -40 -20 0 -16 7 -20 35 -20 19 0 35 -4 35 -10 0 -5 -16 -10 -35 -10
-28 0 -35 -4 -35 -19 0 -16 8 -20 43 -23 60 -4 48 -22 -18 -26 l-55 -3 0 81 0
80 55 0 c42 0 55 -3 55 -15z m144 -1 c18 -18 21 -65 5 -81 -8 -8 -8 -17 1 -33
18 -33 1 -39 -24 -7 -28 35 -66 37 -66 2 0 -14 -4 -25 -9 -25 -9 0 -20 148
-12 156 12 11 91 2 105 -12z m159 1 c1 -5 -17 -11 -40 -13 -35 -3 -43 -7 -43
-23 0 -16 7 -19 40 -19 22 0 40 -4 40 -10 0 -5 -18 -10 -40 -10 -33 0 -40 -3
-40 -20 0 -17 7 -20 45 -20 33 0 45 -4 45 -15 0 -12 -13 -15 -60 -15 l-60 0 0
80 0 81 55 -3 c30 -2 56 -7 58 -13z m-2123 -305 c0 -5 -4 -10 -10 -10 -5 0
-10 5 -10 10 0 6 5 10 10 10 6 0 10 -4 10 -10z m90 0 c0 -5 -4 -10 -10 -10 -5
0 -10 5 -10 10 0 6 5 10 10 10 6 0 10 -4 10 -10z m90 0 c0 -5 -4 -10 -10 -10
-5 0 -10 5 -10 10 0 6 5 10 10 10 6 0 10 -4 10 -10z m85 0 c3 -5 1 -10 -4 -10
-6 0 -11 5 -11 10 0 6 2 10 4 10 3 0 8 -4 11 -10z m90 0 c3 -5 -1 -10 -10 -10
-9 0 -13 5 -10 10 3 6 8 10 10 10 2 0 7 -4 10 -10z m90 0 c3 -5 -1 -10 -10
-10 -9 0 -13 5 -10 10 3 6 8 10 10 10 2 0 7 -4 10 -10z m90 0 c3 -5 -1 -10 -9
-10 -9 0 -16 5 -16 10 0 6 4 10 9 10 6 0 13 -4 16 -10z m85 0 c0 -5 -5 -10
-11 -10 -5 0 -7 5 -4 10 3 6 8 10 11 10 2 0 4 -4 4 -10z m90 0 c0 -5 -4 -10
-10 -10 -5 0 -10 5 -10 10 0 6 5 10 10 10 6 0 10 -4 10 -10z m90 0 c0 -5 -4
-10 -10 -10 -5 0 -10 5 -10 10 0 6 5 10 10 10 6 0 10 -4 10 -10z m90 0 c0 -5
-4 -10 -10 -10 -5 0 -10 5 -10 10 0 6 5 10 10 10 6 0 10 -4 10 -10z m90 0 c0
-5 -4 -10 -10 -10 -5 0 -10 5 -10 10 0 6 5 10 10 10 6 0 10 -4 10 -10z m85 0
c3 -5 1 -10 -4 -10 -6 0 -11 5 -11 10 0 6 2 10 4 10 3 0 8 -4 11 -10z m90 0
c3 -5 -1 -10 -10 -10 -9 0 -13 5 -10 10 3 6 8 10 10 10 2 0 7 -4 10 -10z m90
0 c3 -5 -1 -10 -10 -10 -9 0 -13 5 -10 10 3 6 8 10 10 10 2 0 7 -4 10 -10z
m85 0 c0 -5 -4 -10 -10 -10 -5 0 -10 5 -10 10 0 6 5 10 10 10 6 0 10 -4 10
-10z m90 0 c0 -5 -4 -10 -10 -10 -5 0 -10 5 -10 10 0 6 5 10 10 10 6 0 10 -4
10 -10z m90 0 c0 -5 -4 -10 -10 -10 -5 0 -10 5 -10 10 0 6 5 10 10 10 6 0 10
-4 10 -10z m90 0 c0 -5 -4 -10 -10 -10 -5 0 -10 5 -10 10 0 6 5 10 10 10 6 0
10 -4 10 -10z m90 0 c0 -5 -4 -10 -10 -10 -5 0 -10 5 -10 10 0 6 5 10 10 10 6
0 10 -4 10 -10z m85 0 c3 -5 1 -10 -4 -10 -6 0 -11 5 -11 10 0 6 2 10 4 10 3
0 8 -4 11 -10z m90 0 c3 -5 -1 -10 -10 -10 -9 0 -13 5 -10 10 3 6 8 10 10 10
2 0 7 -4 10 -10z m90 0 c3 -5 -1 -10 -10 -10 -9 0 -13 5 -10 10 3 6 8 10 10
10 2 0 7 -4 10 -10z m85 0 c0 -5 -4 -10 -10 -10 -5 0 -10 5 -10 10 0 6 5 10
10 10 6 0 10 -4 10 -10z m90 0 c0 -5 -4 -10 -10 -10 -5 0 -10 5 -10 10 0 6 5
10 10 10 6 0 10 -4 10 -10z m-541 -157 c-7 -10 -14 -19 -15 -21 -1 -1 -4 6 -7
18 -4 15 0 20 15 20 18 0 19 -2 7 -17z m-1511 -9 c14 -10 22 -26 22 -44 0 -37
-32 -60 -82 -60 l-38 0 0 60 0 60 38 0 c21 0 48 -7 60 -16z m131 -40 c25 -59
22 -76 -9 -56 -24 15 -60 16 -60 2 0 -5 -9 -10 -20 -10 -25 0 -25 -2 4 65 33
74 55 74 85 -1z m221 41 c0 -10 -11 -16 -32 -16 -31 -2 -31 -2 -5 -6 34 -5 36
-33 2 -33 -14 0 -25 -4 -25 -10 0 -5 14 -10 30 -10 20 0 30 -5 30 -16 0 -12
-10 -14 -47 -12 l-48 3 -3 43 c-3 34 -7 42 -23 42 -16 0 -19 -7 -19 -45 0 -33
-4 -45 -15 -45 -11 0 -15 12 -15 45 0 38 -3 45 -20 45 -11 0 -20 7 -20 15 0
12 18 15 105 15 87 0 105 -3 105 -15z m228 -42 c-3 -54 -5 -58 -27 -58 -13 0
-26 7 -29 15 -4 12 -2 13 9 3 19 -19 39 3 39 44 0 26 -5 36 -22 43 -22 8 -22
9 5 9 28 1 28 1 25 -56z m102 7 c13 -27 20 -53 17 -57 -4 -3 -7 -1 -7 5 0 19
-68 15 -79 -5 -10 -17 -10 -17 -11 -1 0 20 41 108 50 108 4 0 17 -22 30 -50z
m91 4 l34 -46 6 48 c6 48 6 48 7 -16 l1 -65 -39 45 -39 45 -1 -43 c0 -26 -4
-41 -10 -37 -12 7 -14 115 -2 115 5 0 24 -21 43 -46z m99 -4 c0 -49 1 -50 30
-50 29 0 30 2 30 44 0 25 5 48 10 51 17 11 12 -77 -7 -97 -36 -40 -83 -8 -83
59 0 23 5 43 10 43 6 0 10 -22 10 -50z m178 -3 c23 -54 29 -85 11 -54 -13 23
-74 23 -83 1 -4 -9 -9 -15 -12 -12 -6 6 47 118 56 118 4 0 16 -24 28 -53z
m126 31 c8 -13 7 -23 -2 -39 -10 -15 -11 -24 -3 -32 6 -6 11 -16 11 -21 -1 -6
-9 -1 -20 12 -20 24 -55 27 -55 5 0 -6 -3 -15 -7 -19 -5 -4 -8 21 -8 55 l0 62
36 -3 c22 -2 42 -10 48 -20z m44 -9 l19 -31 19 31 c10 17 22 31 27 31 5 0 -1
-16 -13 -35 -12 -19 -26 -48 -30 -63 l-8 -27 -1 25 c-1 14 -10 39 -21 55 -19
29 -25 45 -16 45 2 0 13 -14 24 -31z m152 -30 c0 -37 -4 -58 -10 -54 -5 3 -10
28 -10 55 0 29 -5 50 -12 53 -7 3 -3 6 10 6 20 1 22 -3 22 -60z m90 53 c0 -4
-5 -13 -12 -20 -9 -9 -7 -16 7 -32 15 -16 17 -25 9 -38 -14 -21 -52 -28 -68
-12 -8 9 -6 11 9 10 35 -4 45 0 45 16 0 9 -9 18 -20 21 -18 5 -18 7 -4 28 15
23 14 24 -13 28 -23 3 -22 4 10 6 20 0 37 -3 37 -7z m100 -12 c10 0 21 6 23
13 3 6 5 -4 6 -23 0 -21 -3 -29 -7 -20 -8 18 -38 20 -34 2 1 -7 -2 -12 -8 -12
-5 0 -10 15 -9 33 0 17 3 26 6 20 2 -7 13 -13 23 -13z m190 1 c8 -16 5 -26
-16 -50 l-26 -31 26 0 c14 0 26 -4 26 -10 0 -5 -18 -10 -40 -10 -22 0 -40 3
-40 7 0 4 14 22 31 39 38 39 34 70 -7 60 -17 -5 -23 -3 -19 4 11 17 54 11 65
-9z m98 7 c7 -7 12 -28 12 -48 0 -57 -34 -77 -72 -43 -10 9 -18 29 -18 44 0
47 48 77 78 47z m96 -10 c8 -14 5 -23 -19 -48 l-29 -30 27 0 c15 0 27 -4 27
-10 0 -5 -18 -10 -40 -10 -22 0 -40 3 -40 6 0 3 14 17 31 31 39 33 37 69 -4
66 -16 -1 -25 2 -21 8 9 15 56 6 68 -13z m61 -18 c-27 -28 -27 -30 -8 -30 12
0 23 6 26 13 3 8 9 6 19 -7 13 -17 13 -21 -1 -38 -13 -16 -17 -16 -19 -3 -2 9
-14 15 -33 15 -16 0 -29 3 -29 8 0 13 62 83 68 77 3 -3 -7 -19 -23 -35z m-375
-67 c0 -5 -5 -15 -10 -23 -8 -12 -10 -11 -10 8 0 12 5 22 10 22 6 0 10 -3 10
-7z m-1651 -122 c19 -12 3 -33 -20 -26 -11 4 -19 2 -19 -4 0 -6 6 -11 14 -11
27 0 47 -29 36 -51 -14 -24 -90 -28 -90 -4 0 10 11 15 33 16 21 1 25 3 12 6
-29 7 -45 23 -45 44 0 31 48 49 79 30z m116 -10 c0 -8 -11 -16 -24 -18 -35 -5
-39 -13 -8 -13 37 0 36 -30 0 -31 -25 -1 -24 -2 7 -8 34 -7 36 -5 57 39 12 25
27 45 33 44 5 -1 14 -2 19 -2 7 -2 51 -92 51 -106 0 -3 -9 -6 -20 -6 -11 0
-20 5 -20 10 0 6 -11 10 -25 10 -14 0 -25 -4 -25 -10 0 -6 -28 -10 -65 -10
-71 0 -67 -4 -67 70 0 17 1 34 1 39 2 15 86 7 86 -8z m233 1 c2 -7 -5 -16 -15
-18 -16 -4 -19 -13 -17 -45 2 -33 -1 -39 -17 -39 -16 0 -19 7 -19 40 0 28 -4
40 -14 40 -18 0 -29 16 -21 29 8 14 98 8 103 -7z m253 8 c26 -14 24 -33 -6
-69 l-26 -30 28 -4 c19 -3 14 -4 -16 -6 l-45 -1 32 33 c38 39 42 69 10 67 -36
-3 -44 0 -28 10 19 12 27 12 51 0z m128 -9 c3 -5 6 -29 6 -53 l0 -43 -47 -3
-48 -3 0 54 c0 29 3 57 8 61 9 10 74 0 81 -13z m-789 -251 c0 -5 -4 -10 -10
-10 -5 0 -10 5 -10 10 0 6 5 10 10 10 6 0 10 -4 10 -10z m90 0 c0 -5 -4 -10
-10 -10 -5 0 -10 5 -10 10 0 6 5 10 10 10 6 0 10 -4 10 -10z m90 0 c0 -5 -4
-10 -10 -10 -5 0 -10 5 -10 10 0 6 5 10 10 10 6 0 10 -4 10 -10z m90 0 c0 -5
-4 -10 -10 -10 -5 0 -10 5 -10 10 0 6 5 10 10 10 6 0 10 -4 10 -10z m85 0 c3
-5 1 -10 -4 -10 -6 0 -11 5 -11 10 0 6 2 10 4 10 3 0 8 -4 11 -10z m85 0 c0
-5 -5 -10 -11 -10 -5 0 -7 5 -4 10 3 6 8 10 11 10 2 0 4 -4 4 -10z m90 0 c0
-5 -5 -10 -11 -10 -5 0 -7 5 -4 10 3 6 8 10 11 10 2 0 4 -4 4 -10z m90 0 c0
-5 -4 -10 -10 -10 -5 0 -10 5 -10 10 0 6 5 10 10 10 6 0 10 -4 10 -10z m90 0
c0 -5 -4 -10 -10 -10 -5 0 -10 5 -10 10 0 6 5 10 10 10 6 0 10 -4 10 -10z m90
0 c0 -5 -4 -10 -10 -10 -5 0 -10 5 -10 10 0 6 5 10 10 10 6 0 10 -4 10 -10z
m90 0 c0 -5 -4 -10 -10 -10 -5 0 -10 5 -10 10 0 6 5 10 10 10 6 0 10 -4 10
-10z m90 0 c0 -5 -4 -10 -10 -10 -5 0 -10 5 -10 10 0 6 5 10 10 10 6 0 10 -4
10 -10z m85 0 c3 -5 1 -10 -4 -10 -6 0 -11 5 -11 10 0 6 2 10 4 10 3 0 8 -4
11 -10z m85 0 c0 -5 -5 -10 -11 -10 -5 0 -7 5 -4 10 3 6 8 10 11 10 2 0 4 -4
4 -10z m90 0 c0 -5 -5 -10 -11 -10 -5 0 -7 5 -4 10 3 6 8 10 11 10 2 0 4 -4 4
-10z m90 0 c0 -5 -4 -10 -10 -10 -5 0 -10 5 -10 10 0 6 5 10 10 10 6 0 10 -4
10 -10z m90 0 c0 -5 -4 -10 -10 -10 -5 0 -10 5 -10 10 0 6 5 10 10 10 6 0 10
-4 10 -10z m90 0 c0 -5 -4 -10 -10 -10 -5 0 -10 5 -10 10 0 6 5 10 10 10 6 0
10 -4 10 -10z m90 0 c0 -5 -4 -10 -10 -10 -5 0 -10 5 -10 10 0 6 5 10 10 10 6
0 10 -4 10 -10z m90 0 c0 -5 -4 -10 -10 -10 -5 0 -10 5 -10 10 0 6 5 10 10 10
6 0 10 -4 10 -10z m90 0 c0 -5 -4 -10 -10 -10 -5 0 -10 5 -10 10 0 6 5 10 10
10 6 0 10 -4 10 -10z m85 0 c3 -5 1 -10 -4 -10 -6 0 -11 5 -11 10 0 6 2 10 4
10 3 0 8 -4 11 -10z m85 0 c0 -5 -5 -10 -11 -10 -5 0 -7 5 -4 10 3 6 8 10 11
10 2 0 4 -4 4 -10z m90 0 c0 -5 -4 -10 -10 -10 -5 0 -10 5 -10 10 0 6 5 10 10
10 6 0 10 -4 10 -10z m90 0 c0 -5 -4 -10 -10 -10 -5 0 -10 5 -10 10 0 6 5 10
10 10 6 0 10 -4 10 -10z m-1535 -245 c0 -23 -5 -31 -21 -33 -24 -3 -38 20 -28
50 4 13 13 18 27 16 17 -2 22 -10 22 -33z m62 -17 c-2 -13 -4 -5 -4 17 -1 22
1 32 4 23 2 -10 2 -28 0 -40z m100 17 c-1 -26 -7 -35 -19 -35 -22 0 -23 8 -1
32 15 17 15 18 0 18 -10 0 -17 5 -17 10 0 6 9 10 20 10 17 0 20 -6 17 -35z
m98 3 c0 -28 -4 -33 -25 -35 -14 -1 -18 0 -7 3 18 6 24 24 6 24 -5 0 -7 5 -3
11 3 6 0 15 -7 20 -10 6 -7 9 11 9 22 0 26 -4 25 -32z m74 10 c-11 -20 -10
-21 3 -10 13 10 17 10 21 -1 7 -18 -12 -47 -20 -29 -2 6 -11 12 -19 12 -11 0
-11 5 -2 25 6 14 15 25 20 25 5 0 3 -10 -3 -22z m112 13 c-9 -6 -10 -11 -2
-15 19 -12 13 -46 -9 -46 -11 0 -20 5 -20 11 0 5 4 8 9 4 5 -3 12 -1 16 5 3 5
-1 10 -9 10 -9 0 -16 9 -16 20 0 14 7 20 23 20 16 0 18 -3 8 -9z m105 -46 c-7
-19 -35 -19 -42 -1 -3 8 0 24 6 36 l12 22 15 -21 c8 -12 12 -28 9 -36z m94 51
c0 -16 -24 -66 -32 -66 -6 0 -7 7 -4 15 3 8 9 21 12 29 3 9 -2 16 -13 19 -12
3 -9 5 10 6 15 0 27 -1 27 -3z m88 -34 c3 -30 1 -33 -20 -30 -17 2 -23 10 -23
28 0 34 4 42 23 38 11 -2 18 -15 20 -36z m98 24 c3 -8 0 -24 -6 -36 l-12 -22
-15 21 c-8 12 -12 28 -9 36 7 19 35 19 42 1z m99 -21 c0 -23 -5 -31 -21 -33
-24 -3 -38 20 -28 50 4 13 13 18 27 16 17 -2 22 -10 22 -33z m-687 -270 l3
-135 -141 0 -140 0 0 134 c0 117 2 135 17 138 9 2 71 2 137 1 l121 -2 3 -136z
m605 136 l107 -1 0 -135 0 -135 -140 0 -140 0 0 134 c0 142 2 148 50 140 8 -1
63 -3 123 -3z m-453 -41 c0 -39 -1 -40 -35 -40 -24 0 -35 -5 -35 -15 0 -8 7
-15 16 -15 9 0 18 -9 21 -19 3 -11 12 -21 21 -23 12 -2 16 -16 16 -58 1 -44 4
-55 19 -58 15 -3 17 6 17 77 l0 81 40 0 c29 0 40 4 40 15 0 8 -9 15 -20 15
-29 0 -26 37 3 42 12 3 47 4 77 3 48 -1 55 -4 58 -23 2 -15 -2 -22 -12 -22 -9
0 -16 -7 -16 -15 0 -8 7 -15 15 -15 11 0 15 -12 15 -45 0 -38 -3 -45 -20 -45
-11 0 -20 -7 -20 -15 0 -8 9 -15 20 -15 13 0 20 -7 20 -20 0 -13 -7 -20 -20
-20 -11 0 -20 7 -20 15 0 8 -9 15 -20 15 -11 0 -20 -7 -20 -15 0 -8 -9 -15
-20 -15 -13 0 -20 7 -20 20 0 13 7 20 20 20 11 0 20 7 20 15 0 11 -11 15 -40
15 -38 0 -40 -2 -40 -31 0 -22 5 -32 20 -36 11 -3 20 -14 20 -24 0 -12 -7 -19
-20 -19 -13 0 -20 7 -20 20 0 11 -7 20 -15 20 -8 0 -15 -9 -15 -20 0 -11 6
-20 14 -20 7 0 16 -8 19 -19 3 -14 13 -18 38 -17 28 0 35 -3 37 -22 3 -19 -1
-22 -32 -22 -34 0 -36 -2 -36 -35 0 -24 5 -35 15 -35 8 0 15 7 15 15 0 8 9 15
20 15 18 0 20 -7 20 -60 0 -54 -2 -60 -20 -60 -14 0 -20 -6 -18 -17 2 -14 -5
-19 -34 -21 -26 -2 -39 -9 -43 -23 -4 -10 -12 -19 -20 -19 -12 0 -28 -24 -20
-32 2 -1 46 -2 99 0 l96 3 0 55 c0 47 2 54 20 54 16 0 20 -7 20 -35 0 -28 4
-35 20 -35 18 0 20 7 20 55 l0 55 -40 0 -40 0 0 59 0 60 38 3 c35 3 37 5 40
41 l3 37 60 0 59 0 0 -40 c0 -34 -3 -40 -21 -40 -14 0 -19 -5 -17 -17 5 -25
29 -28 35 -5 4 15 15 22 41 24 40 3 55 26 23 35 -12 3 -21 13 -21 24 0 15 7
19 40 19 l40 0 0 -40 c0 -33 -3 -40 -20 -40 -13 0 -20 -7 -20 -20 0 -17 -7
-20 -40 -20 -33 0 -40 -3 -40 -20 0 -13 -7 -20 -20 -20 -11 0 -20 -6 -20 -14
0 -7 9 -16 20 -19 11 -3 20 -12 20 -21 0 -9 8 -16 20 -16 16 0 20 7 20 35 0
33 2 35 34 35 26 0 36 5 41 20 3 11 15 20 26 20 16 0 19 -7 19 -40 0 -33 -3
-40 -20 -40 -17 0 -20 -7 -20 -40 0 -33 -4 -40 -19 -40 -10 0 -21 9 -24 20 -3
11 -12 20 -21 20 -9 0 -16 -8 -16 -20 0 -17 -7 -20 -40 -20 -43 0 -57 -23 -20
-33 15 -4 20 -14 20 -41 0 -29 4 -36 20 -36 13 0 20 -7 20 -20 0 -27 30 -26
37 1 5 16 12 19 42 17 34 -3 36 -5 39 -41 3 -32 0 -39 -17 -44 -12 -3 -21 -12
-21 -19 0 -10 -13 -14 -40 -14 -29 0 -40 4 -40 15 0 8 -9 15 -20 15 -16 0 -20
-7 -20 -34 0 -33 1 -34 45 -38 35 -2 52 2 82 23 41 29 28 31 147 -20 l48 -21
-23 -19 c-13 -10 -39 -26 -58 -35 -33 -17 -34 -17 -111 14 -75 32 -78 32 -104
15 -26 -17 -26 -17 -26 9 0 19 -5 26 -20 26 -11 0 -20 -7 -20 -15 0 -8 -9 -15
-20 -15 -16 0 -20 7 -20 35 0 34 -1 35 -40 35 -29 0 -40 -4 -40 -15 0 -8 9
-15 20 -15 18 0 20 -7 20 -60 l0 -60 -59 0 c-50 0 -59 3 -64 20 -6 23 -37 17
-37 -6 0 -8 -9 -14 -20 -14 -11 0 -20 7 -20 15 0 12 -15 15 -75 15 -60 0 -75
-3 -75 -15 0 -9 -10 -15 -26 -15 -23 0 -25 3 -22 38 3 35 5 37 41 40 50 4 50
30 0 34 -43 3 -60 35 -25 45 11 3 22 13 25 24 4 16 14 19 60 19 47 0 57 -3 62
-20 3 -11 12 -20 20 -20 7 0 15 9 18 20 3 11 12 20 20 20 8 0 17 -9 20 -20 3
-11 12 -20 21 -20 9 0 16 8 16 20 0 13 7 20 20 20 11 0 20 7 20 15 0 8 -9 15
-20 15 -13 0 -20 7 -20 20 0 13 -7 20 -20 20 -13 0 -20 -7 -20 -20 0 -19 -5
-21 -57 -18 l-58 3 -3 38 c-3 35 -5 37 -38 37 -24 0 -34 -5 -34 -15 0 -8 7
-15 15 -15 9 0 15 -10 15 -26 0 -23 -3 -25 -37 -22 l-38 3 -3 118 c-3 117 -3
117 21 117 22 0 23 -3 20 -55 -2 -49 0 -55 17 -55 12 0 20 7 20 16 0 9 9 18
20 21 15 4 20 14 20 39 0 27 -4 34 -20 34 -13 0 -20 7 -20 20 0 13 -7 20 -20
20 -13 0 -20 7 -20 20 0 11 -6 20 -14 20 -7 0 -16 -9 -19 -20 -3 -11 -12 -20
-20 -20 -8 0 -17 -9 -20 -20 -3 -11 -12 -20 -21 -20 -9 0 -16 8 -16 20 0 13
-7 20 -20 20 -13 0 -20 7 -20 20 0 13 -7 20 -20 20 -13 0 -20 7 -20 20 0 16
-7 20 -36 20 -27 0 -37 -5 -41 -20 -4 -16 -14 -20 -44 -20 l-39 0 0 60 0 60
40 0 c29 0 40 -4 40 -15 0 -8 9 -15 20 -15 11 0 20 7 20 15 0 8 9 15 19 15 16
0 20 -8 23 -37 2 -24 8 -37 16 -35 7 1 17 -10 22 -24 11 -27 33 -28 38 -1 2
12 -3 17 -17 17 -14 0 -21 6 -21 20 0 12 7 20 16 20 9 0 18 9 21 20 4 15 14
20 39 20 l34 0 0 76 c0 67 2 76 20 81 26 7 26 29 -1 36 -17 5 -20 12 -17 44 2
21 9 39 16 39 6 1 23 2 37 3 15 1 25 7 25 16 0 8 9 15 20 15 17 0 20 -7 20
-40z m-874 -278 c-2 -4 -1 -14 5 -22 7 -13 9 -13 10 0 1 8 1 18 0 23 -3 17 28
5 43 -18 30 -46 31 -81 3 -109 -37 -36 -78 -35 -111 5 -33 38 -33 73 -1 104
22 23 63 36 51 17z m1114 -12 c0 -13 -7 -20 -20 -20 -13 0 -20 7 -20 20 0 13
7 20 20 20 13 0 20 -7 20 -20z m-858 -132 c22 -18 30 -61 15 -83 -8 -10 -26
-17 -42 -17 -52 0 -75 67 -33 96 27 19 39 20 60 4z m308 -63 c0 -8 9 -15 20
-15 11 0 20 7 20 15 0 8 9 15 20 15 16 0 20 -7 20 -35 0 -28 4 -35 20 -35 11
0 20 7 20 15 0 8 9 15 20 15 12 0 20 -7 20 -16 0 -9 -9 -18 -20 -21 -26 -7
-26 -29 1 -36 25 -7 22 -40 -4 -45 -12 -2 -17 3 -17 17 0 14 -6 21 -20 21 -13
0 -20 7 -20 20 0 17 -7 20 -40 20 -29 0 -40 -4 -40 -15 0 -8 9 -15 20 -15 15
0 20 -7 20 -25 0 -31 -29 -34 -37 -5 -7 26 -33 26 -40 -1 -5 -16 -12 -19 -42
-17 -42 3 -58 36 -22 45 27 7 27 33 1 33 -14 0 -20 7 -20 21 0 12 8 23 20 26
11 3 20 12 20 19 0 10 13 14 40 14 29 0 40 -4 40 -15z m1331 -126 c16 -34 29
-63 27 -65 -2 -2 -43 -18 -92 -37 l-88 -34 -79 31 c-43 17 -79 34 -79 37 0 21
212 125 262 128 12 1 28 -19 49 -60z m-463 4 c-5 -26 -38 -29 -38 -4 0 15 6
21 21 21 14 0 19 -5 17 -17z m-152 -359 l79 -36 -40 -24 c-61 -37 -75 -38
-148 -3 l-68 31 48 34 c26 18 49 33 49 33 1 1 37 -15 80 -35z m-220 -145 l69
-30 -25 -19 c-56 -43 -73 -44 -139 -11 -33 17 -61 33 -61 36 0 6 73 55 81 55
4 0 38 -14 75 -31z m632 -58 c-2 -5 2 -8 7 -7 6 0 9 4 8 9 -2 4 4 7 12 7 9 0
25 -16 37 -36 15 -25 25 -33 37 -29 18 8 131 23 131 18 0 -1 -35 -20 -78 -42
-75 -38 -78 -40 -111 -109 -37 -76 -47 -82 -132 -82 l-39 0 37 73 c21 39 39
74 40 77 1 3 -4 13 -12 23 -13 18 -16 17 -83 -14 -68 -31 -71 -33 -103 -103
l-34 -71 -57 -3 c-32 -2 -58 0 -58 3 0 3 13 32 30 65 28 56 34 61 107 96 43
20 103 42 133 48 42 9 56 17 58 31 2 11 14 28 25 37 24 19 49 24 45 9z m445
-89 l14 -62 -81 -44 c-60 -33 -97 -46 -143 -51 -35 -4 -63 -5 -63 -2 0 2 17
35 38 73 35 66 41 71 122 115 47 25 88 43 92 40 4 -3 13 -34 21 -69z m-848
-42 c-67 -33 -79 -36 -69 -17 4 6 3 8 -1 4 -5 -4 -10 -13 -11 -20 -1 -7 -16
-42 -32 -78 l-30 -67 -51 -3 c-28 -2 -51 -1 -51 3 0 4 10 32 23 63 18 45 28
57 59 70 21 8 45 12 55 9 14 -4 15 -4 4 4 -10 7 -1 14 35 28 27 10 55 17 62
16 6 -2 20 2 30 7 9 6 22 10 27 10 6 0 -17 -14 -50 -29z m-260 -33 c-22 -11
-56 -22 -75 -23 -35 -2 -34 -2 15 21 28 12 61 22 75 22 21 0 19 -2 -15 -20z
m958 -333 c12 -4 17 -17 17 -43 0 -32 -3 -37 -22 -36 -37 0 -51 14 -44 46 4
21 2 29 -9 29 -9 0 -12 -6 -8 -16 4 -11 1 -15 -13 -12 -11 2 -19 -3 -18 -9 3
-42 5 -45 20 -39 9 4 23 1 31 -5 11 -10 10 -16 -8 -35 -15 -16 -26 -20 -38
-14 -9 5 -24 11 -33 14 -32 10 -23 73 16 112 35 35 34 35 109 8z"/>
<path d="M5035 6081 c-6 -11 9 -23 19 -14 9 9 7 23 -3 23 -6 0 -12 -4 -16 -9z"/>
<path d="M5095 6081 c-6 -11 9 -23 19 -14 9 9 7 23 -3 23 -6 0 -12 -4 -16 -9z"/>
<path d="M5172 6079 c2 -6 8 -10 13 -10 5 0 11 4 13 10 2 6 -4 11 -13 11 -9 0
-15 -5 -13 -11z"/>
<path d="M5672 6079 c2 -6 8 -10 13 -10 5 0 11 4 13 10 2 6 -4 11 -13 11 -9 0
-15 -5 -13 -11z"/>
<path d="M5720 6081 c0 -6 5 -13 10 -16 6 -3 10 1 10 9 0 9 -4 16 -10 16 -5 0
-10 -4 -10 -9z"/>
<path d="M5796 5735 c-10 -26 -7 -35 9 -35 17 0 19 18 6 38 -7 11 -10 10 -15
-3z"/>
<path d="M5271 5472 c-17 -32 -13 -42 14 -42 28 0 30 5 11 39 -13 24 -14 24
-25 3z"/>
<path d="M6142 5473 c2 -22 9 -29 29 -31 30 -3 52 18 43 42 -4 10 -18 16 -41
16 -32 0 -34 -2 -31 -27z"/>
<path d="M4280 5001 c0 -32 6 -37 28 -22 19 11 11 45 -11 49 -13 3 -17 -3 -17
-27z"/>
<path d="M4977 5010 c-4 -15 0 -20 14 -20 21 0 22 1 13 24 -8 22 -21 20 -27
-4z"/>
<path d="M5346 5015 c-8 -22 -3 -28 19 -23 14 3 14 5 2 22 -13 18 -14 18 -21
1z"/>
<path d="M5448 5025 c-3 -13 -3 -27 0 -30 11 -10 40 -4 53 11 11 14 10 18 -6
30 -28 20 -42 17 -47 -11z"/>
<path d="M6135 5038 c-5 -17 -8 -39 -6 -61 1 -14 8 -18 29 -15 21 2 28 9 30
29 5 39 -42 79 -53 47z"/>
<path d="M4980 4799 c0 -16 5 -20 27 -17 17 2 29 10 31 21 3 13 -3 17 -27 17
-25 0 -31 -4 -31 -21z"/>
<path d="M4980 4750 c0 -18 5 -21 33 -18 20 2 32 8 32 18 0 10 -12 16 -32 18
-28 3 -33 0 -33 -18z"/>
<path d="M4823 4334 c-3 -8 -1 -20 6 -27 8 -8 11 -4 11 16 0 30 -7 35 -17 11z"/>
<path d="M5380 4309 c0 -5 5 -7 10 -4 6 3 10 8 10 11 0 2 -4 4 -10 4 -5 0 -10
-5 -10 -11z"/>
<path d="M5560 4310 c0 -5 5 -10 10 -10 6 0 10 5 10 10 0 6 -4 10 -10 10 -5 0
-10 -4 -10 -10z"/>
<path d="M5753 4334 c-3 -8 -1 -20 6 -27 8 -8 11 -4 11 16 0 30 -7 35 -17 11z"/>
<path d="M4870 4055 l0 -95 90 0 90 0 0 95 0 95 -90 0 -90 0 0 -95z m150 5 c0
-33 -4 -60 -10 -61 -5 0 -28 -1 -50 -1 -22 0 -44 1 -50 1 -5 1 -10 28 -10 61
l0 60 60 0 60 0 0 -60z"/>
<path d="M5573 4058 l2 -93 93 -3 92 -3 0 96 0 95 -94 0 -94 0 1 -92z m157 2
c0 -41 -4 -60 -12 -61 -7 -1 -24 -3 -38 -5 -14 -2 -35 -1 -47 2 -21 4 -23 10
-23 64 l0 60 60 0 60 0 0 -60z"/>
<path d="M5370 4055 c0 -8 9 -15 20 -15 11 0 20 7 20 15 0 8 -9 15 -20 15 -11
0 -20 -7 -20 -15z"/>
<path d="M5410 4015 c0 -8 9 -15 20 -15 11 0 20 7 20 15 0 8 -9 15 -20 15 -11
0 -20 -7 -20 -15z"/>
<path d="M5180 3935 c0 -48 -2 -55 -20 -55 -13 0 -20 -7 -20 -20 0 -16 7 -20
35 -20 28 0 35 -4 35 -20 0 -11 -7 -20 -15 -20 -8 0 -15 -9 -15 -21 0 -17 5
-20 33 -17 32 3 32 4 35 61 3 52 1 57 -18 57 -18 0 -20 6 -20 55 0 42 -3 55
-15 55 -12 0 -15 -13 -15 -55z"/>
<path d="M5060 3824 c0 -9 9 -18 20 -21 11 -3 20 -14 20 -24 0 -11 7 -19 15
-19 11 0 15 11 15 40 0 39 -1 40 -35 40 -25 0 -35 -4 -35 -16z"/>
<path d="M5574 3829 c-8 -14 18 -31 30 -19 9 9 0 30 -14 30 -5 0 -12 -5 -16
-11z"/>
<path d="M5060 3745 c0 -8 7 -15 15 -15 8 0 15 7 15 15 0 8 -7 15 -15 15 -8 0
-15 -7 -15 -15z"/>
<path d="M5300 3665 c0 -10 11 -15 35 -15 24 0 35 5 35 15 0 10 -11 15 -35 15
-24 0 -35 -5 -35 -15z"/>
<path d="M5570 3625 c0 -8 9 -15 20 -15 11 0 20 7 20 15 0 8 -9 15 -20 15 -11
0 -20 -7 -20 -15z"/>
<path d="M5495 3473 c2 -27 3 -52 4 -56 1 -4 25 -7 54 -5 l52 3 1 53 1 52 -58
0 -57 0 3 -47z m73 -11 c3 -17 -2 -22 -17 -22 -14 0 -21 6 -21 18 0 38 33 41
38 4z"/>
<path d="M5220 3345 c0 -8 7 -15 15 -15 8 0 15 7 15 15 0 8 -7 15 -15 15 -8 0
-15 -7 -15 -15z"/>
<path d="M5330 3285 c0 -28 4 -35 20 -35 13 0 20 7 20 20 0 13 7 20 20 20 13
0 20 -7 20 -20 0 -13 7 -20 20 -20 13 0 20 7 20 20 0 13 7 20 20 20 11 0 20 7
20 15 0 12 -16 15 -80 15 l-80 0 0 -35z"/>
<path d="M4336 3819 c-9 -44 -8 -61 3 -54 5 3 12 1 16 -5 3 -5 23 -10 43 -9
31 1 33 2 13 8 -34 9 -36 25 -7 45 17 10 23 22 19 32 -5 14 -9 12 -20 -10 -17
-33 -31 -33 -39 -1 -8 34 -20 31 -28 -6z"/>
<path d="M4425 3780 c3 -5 10 -10 16 -10 5 0 9 5 9 10 0 6 -7 10 -16 10 -8 0
-12 -4 -9 -10z"/>
<path d="M4860 3625 c0 -8 9 -15 20 -15 11 0 20 7 20 15 0 8 -9 15 -20 15 -11
0 -20 -7 -20 -15z"/>
<path d="M6100 2948 c0 -14 -6 -28 -12 -31 -7 -2 -11 -7 -8 -10 3 -3 15 0 27
6 20 11 20 14 8 37 l-14 25 -1 -27z"/>
<path d="M6034 2943 c-1 -10 -5 -31 -9 -47 -5 -20 -5 -27 3 -22 6 3 13 2 17
-4 3 -5 23 -10 43 -10 l37 1 -28 12 c-16 7 -28 16 -27 20 3 11 -21 67 -29 67
-4 0 -7 -8 -7 -17z"/>
<path d="M6115 2890 c3 -5 10 -10 16 -10 5 0 9 5 9 10 0 6 -7 10 -16 10 -8 0
-12 -4 -9 -10z"/>
<path d="M3400 6120 c0 -138 -2 -159 -15 -154 -8 4 -15 1 -15 -5 0 -7 -24 -11
-67 -10 -47 0 -62 3 -48 9 14 6 9 8 -20 5 -47 -4 -75 -14 -75 -26 0 -13 14
-11 28 3 18 18 14 -3 -4 -23 -14 -16 -18 -16 -31 -3 -11 11 -25 13 -51 7 -43
-8 -104 -6 -112 5 -8 11 -30 13 -30 3 0 -19 -41 -23 -60 -6 -12 11 -20 13 -25
5 -11 -18 13 -37 43 -34 15 2 21 1 14 -2 -6 -3 -10 -10 -7 -14 7 -12 -37 -3
-44 8 -3 5 -16 12 -29 16 -12 4 -20 12 -17 17 4 5 3 9 -2 9 -4 0 -25 4 -45 9
-30 7 -35 6 -31 -6 5 -13 2 -13 -15 -4 -12 7 -22 9 -22 5 0 -3 -6 -2 -12 3
-21 17 -62 23 -78 12 -11 -8 -12 -12 -2 -16 6 -2 12 -11 12 -19 0 -9 -5 -12
-12 -8 -10 5 -10 4 -2 -5 6 -7 30 -12 52 -13 l41 0 -22 -19 c-19 -16 -20 -20
-7 -30 12 -8 12 -12 2 -16 -10 -4 -10 -8 -1 -19 14 -17 -2 -19 -20 -1 -11 10
-13 10 -7 0 5 -8 1 -13 -9 -13 -9 0 -19 9 -22 20 -3 11 -9 20 -14 20 -10 0 8
-50 50 -143 17 -38 31 -71 31 -73 0 -2 -16 -4 -36 -4 -27 0 -37 5 -41 20 -4
16 -14 20 -48 20 -35 0 -45 -4 -50 -20 -5 -15 -15 -20 -42 -20 -19 0 -33 4
-31 8 2 5 23 54 48 110 42 96 46 102 75 104 16 1 39 2 50 3 13 0 19 7 18 19
-2 23 14 8 19 -19 3 -15 5 -13 9 10 5 29 4 30 -37 29 -45 -1 -67 -10 -59 -25
4 -5 -6 -8 -22 -8 -17 1 -21 3 -10 6 9 2 17 8 17 13 0 5 -6 7 -14 4 -8 -3 -17
-1 -20 4 -3 5 5 8 17 7 13 -2 34 4 48 11 23 14 23 14 -16 13 -65 -2 -65 -2
-65 41 0 22 -5 40 -11 40 -6 0 -9 -6 -6 -12 2 -7 -2 -26 -11 -42 l-14 -29 -18
23 c-16 21 -20 22 -53 11 -20 -7 -47 -11 -59 -10 -13 2 -33 -1 -45 -5 -47 -15
-62 -15 -56 1 5 12 1 14 -15 9 -17 -6 -21 -4 -16 8 5 12 1 14 -23 7 -15 -5
-36 -12 -45 -16 -10 -4 -18 -3 -18 3 0 5 -9 12 -20 15 -11 3 -20 1 -20 -5 0
-5 9 -12 20 -15 11 -3 20 -9 20 -14 0 -15 -21 -21 -35 -9 -8 6 -23 9 -33 5
-16 -5 -20 -1 -21 22 -1 69 1 66 -68 87 -18 6 -23 3 -23 -11 -1 -16 -2 -16
-13 -2 -7 9 -22 19 -35 23 -12 4 -20 11 -18 15 3 4 -11 8 -31 9 -20 2 -40 5
-44 8 -4 2 -10 0 -14 -6 -3 -5 -1 -10 4 -10 6 0 11 -8 11 -18 0 -10 6 -30 13
-45 10 -23 18 -27 60 -28 69 -3 71 -3 79 -14 13 -17 9 -25 -14 -25 -30 0 -19
-7 20 -13 25 -4 32 -2 29 8 -6 13 11 35 26 35 5 0 4 -6 -2 -14 -6 -8 -11 -18
-10 -22 1 -5 1 -22 0 -39 -1 -24 -3 -27 -12 -15 -8 11 -12 12 -16 3 -7 -20
-23 -15 -16 5 5 13 3 14 -7 5 -24 -22 0 -30 86 -32 48 -1 91 -4 96 -7 4 -3 8
-16 8 -30 0 -21 -5 -24 -35 -24 l-35 0 0 -80 0 -80 -36 0 -36 0 4 80 3 80 -32
0 c-25 0 -33 5 -36 23 l-4 22 -2 -22 c-1 -21 -6 -23 -51 -23 -58 0 -68 -15
-13 -18 47 -4 53 -8 53 -38 0 -22 -4 -24 -45 -24 -36 0 -45 -3 -45 -17 0 -15
2 -16 10 -3 8 12 12 13 19 2 5 -9 22 -12 42 -10 31 3 34 0 37 -24 l3 -28 -90
0 -91 0 0 111 0 110 90 -3 c72 -2 89 0 85 10 -3 8 -5 18 -5 23 0 5 -21 8 -47
7 l-48 -1 43 -4 c56 -5 54 -23 -3 -23 -32 0 -45 4 -45 14 0 8 -8 16 -17 19
-10 2 -3 4 15 4 18 0 35 3 39 6 3 4 -16 7 -43 7 -28 0 -55 -5 -61 -11 -7 -7
-13 -7 -17 -1 -8 14 4 43 15 36 5 -3 9 -1 9 4 0 18 -41 21 -48 4 -12 -30 -79
-36 -171 -17 -31 6 -66 8 -76 4 -20 -7 -20 -8 0 -10 11 -1 5 -5 -15 -8 -37 -7
-90 5 -90 20 0 6 -9 5 -21 -2 -15 -8 -19 -8 -15 0 4 6 2 11 -3 11 -6 0 -11 -4
-11 -9 0 -15 -33 -22 -41 -9 -6 10 -12 8 -23 -7 -8 -11 -12 -24 -8 -29 3 -6 7
-5 10 2 2 7 8 12 13 12 6 0 8 -4 5 -8 -2 -4 4 -14 16 -21 18 -11 19 -10 14 7
-6 17 -2 19 29 15 19 -2 46 -8 61 -13 40 -15 104 -12 110 5 4 8 10 15 16 15 5
0 6 -4 3 -10 -8 -13 -3 -13 30 0 23 9 26 8 21 -6 -3 -8 -6 -19 -6 -22 0 -4 -4
-2 -8 5 -4 7 -17 10 -31 6 -17 -4 -19 -8 -9 -14 9 -6 10 -11 2 -19 -8 -8 -16
-7 -27 4 -9 9 -18 12 -21 8 -3 -5 6 -14 19 -20 30 -14 31 -23 5 -47 -17 -16
-24 -16 -44 -5 -13 7 -30 10 -38 7 -7 -3 -3 -6 10 -6 12 -1 22 -6 22 -12 0 -6
-7 -8 -17 -4 -15 5 -16 4 -5 -6 6 -7 12 -17 12 -22 0 -6 -11 2 -24 16 -25 26
-36 26 -36 -2 0 -13 2 -13 9 -2 7 11 10 11 17 -2 5 -8 16 -17 24 -19 22 -5 31
-21 17 -31 -8 -6 -7 -7 3 -4 9 2 14 14 12 27 -2 20 0 21 15 9 16 -13 17 -12 4
3 -7 10 -17 15 -22 12 -5 -3 -9 0 -9 7 0 7 10 9 25 7 14 -3 23 -1 22 6 -1 6 4
10 11 8 8 -1 11 2 7 8 -3 5 -1 10 4 10 6 0 11 -7 11 -15 0 -8 -5 -15 -11 -15
-5 0 -7 -5 -4 -11 4 -5 -1 -19 -11 -31 -18 -19 -18 -20 0 -34 16 -11 17 -16 6
-29 -19 -23 -87 -38 -120 -26 -21 7 -30 6 -33 -2 -3 -9 -8 -9 -18 1 -18 16
-34 16 -17 -1 7 -8 29 -14 48 -13 19 0 51 -3 70 -7 25 -5 31 -4 20 3 -13 8
-13 10 1 10 25 0 30 -12 11 -26 -15 -12 -15 -15 -2 -24 8 -5 11 -10 6 -10 -6
0 -20 9 -32 21 -15 14 -38 22 -71 23 -27 1 -55 6 -63 11 -10 6 -12 4 -7 -8 3
-10 2 -17 -3 -17 -6 0 -10 -4 -10 -9 0 -5 11 -8 25 -8 14 0 22 4 18 10 -4 6
-1 7 8 1 8 -5 22 -7 31 -6 10 2 18 -2 18 -8 0 -13 -89 -11 -107 3 -9 6 -13 5
-13 -3 0 -8 -2 -11 -5 -8 -10 9 7 38 18 31 6 -3 7 -1 3 5 -4 7 -14 12 -22 12
-14 0 -16 -7 -17 -62 -1 -31 -12 -37 -21 -11 -4 9 -1 20 6 25 9 6 6 7 -8 3
-12 -3 -29 -2 -38 1 -26 10 2 24 34 19 14 -3 18 -2 10 2 -8 3 -20 13 -26 21
-8 10 -20 13 -40 8 -24 -5 -26 -4 -11 5 14 8 16 14 6 25 -7 9 -10 33 -7 64 3
28 2 50 -3 50 -4 0 -7 -29 -6 -65 l2 -65 -37 0 -38 0 0 80 0 80 -30 0 c-27 0
-30 3 -30 29 l0 30 100 3 100 3 0 -102 c0 -56 -4 -104 -10 -108 -5 -3 0 -15
12 -27 12 -12 23 -16 27 -10 3 5 15 12 26 15 11 3 5 5 -14 4 -18 -1 -33 1 -32
6 1 4 1 54 1 112 l0 105 35 0 c35 0 40 -7 36 -50 -2 -13 -1 -13 8 0 5 8 13 12
16 8 3 -3 0 -12 -8 -19 -8 -9 -13 -39 -13 -84 -1 -38 1 -62 3 -53 4 16 6 16
31 2 27 -16 27 -16 7 2 -13 13 -21 35 -23 67 -6 82 38 127 126 127 34 0 25 6
-21 14 -24 5 -37 4 -33 -2 3 -5 -6 -9 -19 -9 -16 0 -25 5 -25 15 0 12 -4 11
-16 -6 -14 -20 -17 -21 -35 -8 -11 7 -30 11 -41 8 -16 -4 -19 -2 -13 9 7 11 6
12 -6 3 -19 -15 -149 -19 -149 -5 0 6 21 11 50 11 53 0 61 10 36 43 -17 22
-26 22 -26 -3 0 -17 -5 -19 -44 -14 -25 4 -52 2 -65 -5 -13 -7 -27 -8 -37 -3
-14 8 -14 10 0 21 11 9 16 10 16 2 0 -7 8 -8 23 -2 12 4 34 6 48 4 17 -2 29 2
33 12 4 11 -1 15 -19 15 -13 0 -27 5 -30 10 -7 12 -26 14 -24 3 4 -23 -4 -28
-40 -25 l-38 4 2 -45 c1 -43 0 -45 -18 -35 -11 5 -32 7 -48 4 -15 -3 -31 -1
-34 4 -4 6 15 10 47 11 37 0 47 3 33 8 l-20 8 20 5 c13 3 4 7 -25 12 -25 5
-51 13 -58 19 -10 8 -16 7 -22 -3 -7 -11 -14 -12 -35 -2 l-26 12 2 -60 c2 -65
7 -74 29 -59 11 6 12 9 2 9 -7 0 -10 5 -7 10 3 6 2 10 -4 10 -6 0 -8 7 -5 15
4 8 18 15 33 15 25 -1 25 -1 7 -15 -19 -14 -18 -15 15 -16 l34 -1 -27 -12 -28
-12 45 -39 c25 -22 45 -45 45 -50 0 -14 39 -37 50 -30 6 4 10 17 10 30 0 24
16 42 28 30 3 -3 1 -9 -6 -14 -19 -12 10 -46 33 -38 13 5 16 15 13 37 -3 17
-1 30 4 30 4 0 8 -27 8 -60 0 -39 -4 -60 -12 -60 -6 0 -4 -7 5 -18 10 -10 14
-22 10 -27 -5 -4 -2 -5 6 0 9 5 12 3 9 -6 -3 -8 -13 -13 -22 -13 -24 2 -19
-15 7 -20 12 -3 31 -7 42 -9 11 -3 2 -5 -21 -6 -22 0 -45 4 -50 9 -7 7 -19 8
-36 1 -14 -5 -50 -6 -79 -3 -30 4 -64 7 -76 6 -13 -1 -32 -2 -43 -3 -17 -1
-20 -9 -22 -63 -2 -35 -5 95 -8 287 -3 193 -6 -300 -8 -1094 l-2 -1445 28 25
c54 49 52 49 151 39 109 -12 158 -31 69 -28 -53 1 -60 -1 -112 -41 l-56 -43
-40 16 -40 16 0 -355 0 -355 41 -37 c41 -37 79 -99 79 -128 0 -13 56 -15 499
-15 434 0 500 2 505 15 3 8 16 15 30 15 34 0 82 43 96 86 14 43 1 84 -38 114
-18 15 -21 20 -8 20 9 0 16 -3 16 -8 0 -4 13 -8 29 -8 23 -1 27 1 18 11 -7 7
-18 10 -24 8 -7 -3 -16 2 -19 11 -3 9 -10 13 -15 10 -11 -6 -12 7 -1 22 4 8
41 -20 102 -77 52 -49 101 -89 108 -89 7 0 22 5 33 10 13 7 25 8 37 1 16 -10
16 -10 -1 -11 -35 0 10 -45 83 -82 49 -25 65 -38 53 -41 -10 -3 118 -5 285 -6
166 0 302 1 302 3 0 2 -10 35 -21 72 -24 79 -47 126 -97 201 -42 64 -37 80 7
24 41 -52 95 -170 112 -244 l12 -58 150 3 150 3 11 31 c16 44 55 98 88 120
l28 19 0 1888 c0 1038 -2 1887 -5 1887 -3 0 -5 -72 -5 -160z m-2330 -200 c0
-5 -2 -10 -4 -10 -3 0 -8 5 -11 10 -3 6 -1 10 4 10 6 0 11 -4 11 -10z m1347
-12 c-3 -8 -6 -5 -6 6 -1 11 2 17 5 13 3 -3 4 -12 1 -19z m342 -5 c2 -2 -12
-3 -32 -3 -20 0 -37 4 -37 9 0 14 33 19 50 7 8 -6 17 -12 19 -13z m471 12 c7
-9 8 -15 2 -15 -5 0 -12 7 -16 15 -3 8 -4 15 -2 15 2 0 9 -7 16 -15z m-190
-15 c0 -5 -13 -10 -29 -10 -17 0 -33 5 -36 10 -4 6 8 10 29 10 20 0 36 -4 36
-10z m-2165 -18 c-3 -3 -11 0 -18 7 -9 10 -8 11 6 5 10 -3 15 -9 12 -12z
m1514 1 c6 -10 11 -14 11 -10 0 9 30 -18 30 -27 0 -2 -9 -4 -19 -3 -11 0 -18
4 -16 7 1 3 -3 11 -10 17 -11 10 -17 10 -27 0 -7 -8 -19 -12 -26 -9 -6 2 -12
-1 -12 -7 0 -15 37 -14 43 2 2 6 7 9 11 6 12 -11 -7 -41 -23 -36 -9 2 -22 -2
-28 -8 -9 -10 -4 -22 23 -51 l35 -39 -3 50 c-3 50 -3 50 30 53 l32 3 0 -110 0
-111 -28 0 c-22 0 -36 11 -67 52 l-40 52 -3 -52 c-3 -50 -4 -52 -33 -52 l-29
0 0 71 c0 41 -4 68 -9 64 -18 -10 -23 16 -7 34 9 10 16 26 16 36 0 15 6 17 38
12 25 -5 32 -3 22 3 -8 5 -23 10 -32 10 -10 0 -18 5 -18 11 0 5 6 7 13 3 8 -5
7 -2 -2 9 -12 16 -11 17 10 13 13 -3 27 -5 31 -5 4 -1 5 -9 1 -18 -7 -19 -5
-18 17 10 7 10 9 17 4 16 -18 -3 -25 1 -19 11 11 17 73 12 84 -7z m695 -5 c-3
-4 2 -8 11 -8 9 0 13 5 10 10 -3 6 -1 10 4 10 6 0 11 -5 11 -11 0 -20 -29 -39
-57 -38 -15 1 -21 3 -12 6 10 2 15 11 12 22 -3 11 1 18 11 18 8 0 13 -4 10 -9z
m-1584 -10 c0 -11 -82 -10 -98 0 -7 5 11 8 43 8 30 -1 55 -4 55 -8z m124 -2
c-3 -8 -1 -17 5 -21 6 -3 11 1 11 9 0 26 46 31 71 7 18 -16 19 -21 7 -21 -9 0
-21 7 -28 15 -18 22 -30 18 -30 -9 0 -18 -5 -24 -20 -23 -11 1 -22 7 -24 14
-3 7 -12 10 -21 7 -8 -3 -15 -1 -15 5 0 6 7 11 15 11 8 0 15 5 15 10 0 6 4 10
10 10 5 0 7 -6 4 -14z m141 4 c21 17 19 1 -4 -33 -13 -20 -17 -40 -14 -65 3
-21 2 -34 -3 -30 -4 4 -13 3 -19 -2 -9 -8 -14 -6 -19 5 -3 9 0 18 8 21 8 3 17
13 21 22 3 9 -11 0 -31 -20 -32 -31 -36 -39 -24 -53 9 -10 16 -12 25 -5 6 5
15 6 19 2 4 -4 6 -2 4 3 -1 6 2 11 7 13 6 1 11 -16 13 -38 2 -24 -2 -40 -8
-40 -6 0 -8 5 -5 10 3 6 1 10 -6 10 -8 0 -7 5 2 18 12 15 12 16 -2 5 -9 -7
-20 -9 -25 -5 -4 4 4 -10 19 -30 15 -20 27 -39 27 -42 0 -3 -16 -6 -36 -6 -31
0 -36 -3 -31 -20 3 -11 1 -18 -4 -14 -5 3 -9 0 -9 -5 0 -6 6 -11 13 -11 8 0 7
-4 -3 -10 -8 -5 -22 -10 -30 -10 -12 0 -12 2 -2 9 19 12 21 76 3 76 -8 0 -16
-7 -18 -15 -4 -12 -3 -12 5 -1 6 9 12 10 16 2 7 -11 -23 -65 -32 -56 -3 2 -11
0 -19 -7 -11 -8 -17 -8 -26 2 -10 10 -9 12 5 7 10 -3 20 -2 23 4 4 5 11 7 16
4 5 -4 9 -1 9 4 0 6 -3 11 -7 11 -5 0 -19 3 -33 5 -22 5 -22 4 -5 -4 19 -9 19
-10 -2 -10 -16 -1 -23 -7 -23 -20 0 -18 42 -39 47 -23 2 4 20 6 40 5 21 -1 50
-2 66 -2 35 -1 38 -31 2 -31 -24 0 -25 -2 -25 -65 0 -51 -3 -65 -15 -65 -12 0
-15 15 -16 68 0 37 -3 61 -6 53 -3 -8 -8 -9 -12 -3 -11 17 -53 26 -50 10 1 -7
1 -39 0 -70 -1 -44 -5 -58 -16 -58 -8 0 -15 3 -15 8 -1 4 -17 25 -37 47 -20
22 -33 34 -29 28 4 -7 2 -13 -4 -13 -6 0 -8 -5 -5 -10 4 -6 11 -8 16 -5 5 3 6
-1 3 -9 -3 -9 -10 -13 -16 -10 -5 3 -8 -2 -6 -12 2 -11 -4 -20 -14 -22 -16 -3
-18 5 -18 73 0 64 -3 79 -21 98 -12 12 -19 16 -15 10 4 -7 2 -13 -3 -13 -6 0
-11 7 -11 15 0 21 16 19 41 -6 11 -11 29 -21 39 -22 10 -1 16 -5 14 -9 -3 -5
8 -22 24 -38 17 -16 33 -35 35 -42 3 -7 6 10 6 39 1 33 -4 57 -14 66 -8 9 -11
17 -6 19 5 2 11 10 13 18 2 8 14 18 28 21 25 7 25 7 -3 8 -19 1 -30 -5 -35
-18 -4 -11 -6 37 -5 107 l2 127 37 3 36 3 -4 -42 -4 -42 33 38 c18 21 33 47
33 57 0 11 5 16 10 13 6 -4 8 -11 5 -16 -4 -5 8 -9 24 -9 30 0 41 13 21 25 -5
3 -10 11 -10 17 0 7 6 6 15 -2 12 -10 18 -10 30 0z m725 -5 c-14 -17 -24 -20
-15 -5 9 14 -9 12 -24 -2 -10 -11 -11 -10 -6 5 4 10 18 17 32 17 22 0 24 -2
13 -15z m-670 -15 c0 -5 -9 -10 -20 -10 -11 0 -20 5 -20 10 0 6 9 10 20 10 11
0 20 -4 20 -10z m820 6 c0 -2 -11 -6 -25 -8 -14 -3 -25 -1 -25 3 0 5 11 9 25
9 14 0 25 -2 25 -4z m-1645 -54 c-1 -1 -9 0 -18 4 -13 4 -14 9 -4 19 10 11 13
10 18 -4 4 -9 5 -17 4 -19z m345 18 c0 -5 -5 -10 -11 -10 -5 0 -7 -4 -4 -10 3
-5 0 -7 -9 -4 -12 5 -13 9 -3 20 14 16 27 18 27 4z m1459 -53 l34 -57 36 60
c30 49 41 60 64 60 l27 0 0 -110 0 -110 -30 0 c-30 0 -30 1 -30 53 l0 52 -23
-40 c-30 -54 -56 -56 -84 -8 l-22 38 -1 -47 c0 -47 -1 -48 -30 -48 l-30 0 0
111 0 110 28 -3 c21 -2 34 -16 61 -61z m361 33 c0 -29 -1 -30 -50 -30 -27 0
-50 -4 -50 -10 0 -5 20 -10 45 -10 43 0 45 -1 45 -30 0 -29 -2 -30 -45 -30
-33 0 -45 -4 -45 -14 0 -11 13 -15 53 -13 50 1 52 0 55 -26 l3 -27 -90 0 -91
0 0 110 0 110 85 0 85 0 0 -30z m-1520 1 c0 -6 -4 -12 -8 -15 -5 -3 -9 1 -9 9
0 8 4 15 9 15 4 0 8 -4 8 -9z m64 -82 c-3 -5 -10 -7 -15 -3 -5 3 -7 10 -3 15
3 5 10 7 15 3 5 -3 7 -10 3 -15z m-568 -144 c4 -14 4 -29 0 -32 -3 -4 -6 2 -6
12 0 10 -3 15 -7 12 -7 -8 -33 11 -33 24 0 5 9 9 20 9 13 0 22 -9 26 -25z
m651 3 c-3 -8 -6 -5 -6 6 -1 11 2 17 5 13 3 -3 4 -12 1 -19z m-590 6 c-3 -3
-12 -4 -19 -1 -8 3 -5 6 6 6 11 1 17 -2 13 -5z m-40 -26 c-3 -8 -6 -5 -6 6 -1
11 2 17 5 13 3 -3 4 -12 1 -19z m666 -28 c7 0 32 -22 57 -50 l45 -51 0 48 c0
37 4 48 18 51 15 3 17 -5 17 -72 0 -45 -4 -78 -11 -82 -7 -4 -29 13 -55 42
l-42 49 -4 -45 c-2 -32 -7 -45 -18 -45 -11 0 -15 12 -16 45 -2 104 -4 110 -21
111 -11 0 -13 3 -5 6 6 2 13 12 13 21 1 10 4 8 6 -5 2 -13 10 -23 16 -23z
m-741 0 c36 0 48 -4 48 -15 0 -11 -13 -15 -47 -17 l-48 -1 43 -4 c23 -2 42 -9
42 -14 0 -6 -6 -7 -12 -3 -10 6 -10 4 0 -7 20 -22 14 -29 -28 -29 -33 0 -40
-3 -40 -20 0 -17 7 -20 45 -20 33 0 45 -4 45 -15 0 -12 -13 -15 -61 -15 l-60
0 2 91 c1 64 5 87 12 80 6 -6 33 -11 59 -11z m106 -11 c3 -11 1 -11 -7 1 -14
20 -14 7 1 -25 11 -25 28 -34 28 -15 0 6 -6 10 -12 11 -10 0 -10 2 -1 5 7 3
10 13 7 22 -5 14 -4 15 4 2 16 -25 25 -63 14 -56 -15 9 -25 -11 -14 -31 8 -13
13 -8 31 31 11 27 18 52 15 57 -3 5 6 9 20 9 14 0 26 -2 26 -4 0 -18 -75 -156
-85 -156 -7 0 -26 29 -41 65 -18 41 -31 60 -36 52 -11 -17 -10 -3 1 27 11 26
42 30 49 5z m240 -1 c-3 -7 -23 -14 -46 -16 -29 -2 -42 -8 -42 -18 0 -8 9 -14
23 -13 21 0 21 1 2 9 -11 5 -14 9 -7 9 7 1 23 -6 36 -15 18 -11 26 -12 32 -3
4 7 3 9 -4 5 -6 -3 -14 -1 -18 6 -4 7 -4 10 1 6 4 -4 14 -3 20 2 9 7 12 5 11
-10 -1 -26 -23 -40 -63 -40 -26 0 -33 -4 -33 -20 0 -17 7 -20 45 -20 33 0 45
-4 45 -15 0 -12 -13 -15 -60 -15 l-60 0 0 80 0 80 61 0 c44 0 60 -3 57 -12z
m642 8 c0 -2 16 -38 35 -80 31 -68 33 -76 16 -76 -10 0 -21 9 -24 20 -4 16
-14 20 -45 20 -31 0 -41 -4 -45 -20 -3 -11 -12 -20 -21 -20 -9 0 -16 2 -16 4
0 2 16 38 35 80 21 44 42 76 50 76 8 0 15 -2 15 -4z m114 -12 c3 -8 10 -12 16
-9 5 3 8 0 5 -7 -3 -7 3 -26 14 -41 l19 -29 27 51 c41 75 55 68 55 -29 0 -64
-3 -80 -15 -80 -11 0 -15 12 -15 48 l-1 47 -22 -37 c-12 -21 -26 -38 -32 -38
-5 0 -20 17 -32 38 l-22 37 -1 -47 c0 -36 -4 -48 -15 -48 -12 0 -15 16 -15 80
0 62 3 80 14 80 8 0 17 -7 20 -16z m289 1 c1 -5 -17 -11 -40 -13 -33 -2 -43
-7 -43 -21 0 -14 7 -17 35 -15 25 2 35 -1 35 -11 0 -10 -11 -15 -35 -15 -28 0
-35 -4 -35 -20 0 -17 7 -20 45 -20 33 0 45 -4 45 -15 0 -12 -13 -15 -60 -15
l-60 0 0 80 0 81 55 -3 c30 -2 56 -7 58 -13z m119 -16 c3 -29 6 -32 41 -34 36
-2 37 -1 37 32 0 23 5 33 15 33 12 0 15 -16 15 -80 0 -64 -3 -80 -15 -80 -10
0 -15 11 -15 35 0 34 -1 35 -40 35 -39 0 -40 -1 -40 -35 0 -24 -5 -35 -15 -35
-12 0 -15 16 -15 80 0 63 3 80 14 80 9 0 16 -12 18 -31z m261 16 c1 -5 -17
-11 -40 -13 -33 -2 -43 -7 -43 -20 0 -13 9 -17 37 -17 20 0 38 -6 41 -12 2 -9
-9 -13 -37 -13 -34 0 -41 -3 -41 -20 0 -17 7 -20 45 -20 33 0 45 -4 45 -15 0
-12 -13 -15 -60 -15 l-60 0 0 80 0 81 55 -3 c30 -2 56 -7 58 -13z m147 -7 c24
-26 24 -25 5 -61 -10 -21 -12 -34 -5 -47 13 -25 13 -30 -3 -30 -8 0 -20 11
-27 25 -17 31 -55 31 -55 0 0 -11 -8 -21 -18 -23 -15 -3 -17 6 -17 77 l0 81
50 0 c38 0 54 -5 70 -22z m160 7 c0 -11 -12 -15 -46 -15 -38 0 -45 -3 -42 -17
2 -13 13 -18 37 -18 19 0 36 -6 38 -12 3 -9 -8 -13 -36 -13 -34 0 -41 -3 -41
-20 0 -17 7 -20 45 -20 33 0 45 -4 45 -15 0 -12 -13 -15 -60 -15 l-60 0 0 80
0 80 60 0 c47 0 60 -3 60 -15z m130 5 c0 -5 -5 -10 -11 -10 -5 0 -7 5 -4 10 3
6 8 10 11 10 2 0 4 -4 4 -10z m-36 -15 c-4 -8 -8 -15 -10 -15 -2 0 -4 7 -4 15
0 8 4 15 10 15 5 0 7 -7 4 -15z m86 5 c0 -5 -5 -10 -11 -10 -5 0 -7 5 -4 10 3
6 8 10 11 10 2 0 4 -4 4 -10z m-2355 -18 c12 -9 15 -52 3 -52 -7 0 -10 15 -7
36 0 4 -5 11 -13 15 -7 5 -8 9 -3 9 6 0 15 -4 20 -8z m306 -29 c-12 -20 -14
-14 -5 12 4 9 9 14 11 11 3 -2 0 -13 -6 -23z m433 15 c-3 -4 -9 -8 -15 -8 -5
0 -9 4 -9 8 0 5 7 9 15 9 8 0 12 -4 9 -9z m-430 -46 c3 -5 -1 -9 -9 -9 -8 0
-15 4 -15 9 0 4 4 8 9 8 6 0 12 -4 15 -8z m130 -7 c-10 -8 -23 -15 -28 -15 -6
0 -1 7 10 15 10 8 23 15 28 15 6 0 1 -7 -10 -15z m-59 -5 c3 -5 1 -10 -4 -10
-6 0 -11 5 -11 10 0 6 2 10 4 10 3 0 8 -4 11 -10z m-378 -25 c0 -8 -4 -15 -9
-15 -10 0 -11 14 -1 23 9 10 10 9 10 -8z m2140 -41 c-3 -3 -12 -4 -19 -1 -8 3
-5 6 6 6 11 1 17 -2 13 -5z m-1827 -24 c0 -5 -2 -10 -4 -10 -3 0 -8 5 -11 10
-3 6 -1 10 4 10 6 0 11 -4 11 -10z m1864 -115 c-7 -16 -24 -21 -24 -6 0 8 7
13 27 20 1 1 0 -6 -3 -14z m-2134 -5 c0 -5 -4 -10 -10 -10 -5 0 -10 5 -10 10
0 6 5 10 10 10 6 0 10 -4 10 -10z m90 0 c0 -5 -4 -10 -10 -10 -5 0 -10 5 -10
10 0 6 5 10 10 10 6 0 10 -4 10 -10z m90 0 c0 -5 -7 -10 -16 -10 -8 0 -12 5
-9 10 3 6 10 10 16 10 5 0 9 -4 9 -10z m90 0 c0 -5 -4 -10 -10 -10 -5 0 -10 5
-10 10 0 6 5 10 10 10 6 0 10 -4 10 -10z m90 0 c0 -5 -7 -10 -16 -10 -8 0 -12
5 -9 10 3 6 10 10 16 10 5 0 9 -4 9 -10z m90 0 c0 -5 -7 -10 -15 -10 -8 0 -15
5 -15 10 0 6 7 10 15 10 8 0 15 -4 15 -10z m85 0 c3 -5 -1 -10 -9 -10 -9 0
-16 5 -16 10 0 6 4 10 9 10 6 0 13 -4 16 -10z m85 0 c0 -5 -4 -10 -10 -10 -5
0 -10 5 -10 10 0 6 5 10 10 10 6 0 10 -4 10 -10z m90 0 c0 -5 -4 -10 -10 -10
-5 0 -10 5 -10 10 0 6 5 10 10 10 6 0 10 -4 10 -10z m90 0 c0 -5 -4 -10 -10
-10 -5 0 -10 5 -10 10 0 6 5 10 10 10 6 0 10 -4 10 -10z m90 0 c0 -5 -4 -10
-10 -10 -5 0 -10 5 -10 10 0 6 5 10 10 10 6 0 10 -4 10 -10z m90 2 c0 -13 -12
-22 -22 -16 -10 6 -1 24 13 24 5 0 9 -4 9 -8z m90 -2 c0 -5 -7 -10 -15 -10 -8
0 -15 5 -15 10 0 6 7 10 15 10 8 0 15 -4 15 -10z m90 0 c0 -5 -7 -10 -15 -10
-8 0 -15 5 -15 10 0 6 7 10 15 10 8 0 15 -4 15 -10z m85 0 c3 -5 -1 -10 -9
-10 -9 0 -16 5 -16 10 0 6 4 10 9 10 6 0 13 -4 16 -10z m85 0 c0 -5 -4 -10
-10 -10 -5 0 -10 5 -10 10 0 6 5 10 10 10 6 0 10 -4 10 -10z m90 -6 c0 -8 -4
-12 -10 -9 -5 3 -10 10 -10 16 0 5 5 9 10 9 6 0 10 -7 10 -16z m90 6 c0 -5 -4
-10 -10 -10 -5 0 -10 5 -10 10 0 6 5 10 10 10 6 0 10 -4 10 -10z m90 0 c0 -5
-4 -10 -10 -10 -5 0 -10 5 -10 10 0 6 5 10 10 10 6 0 10 -4 10 -10z m90 0 c0
-5 -7 -10 -16 -10 -8 0 -12 5 -9 10 3 6 10 10 16 10 5 0 9 -4 9 -10z m90 0 c0
-5 -7 -10 -16 -10 -8 0 -12 5 -9 10 3 6 10 10 16 10 5 0 9 -4 9 -10z m90 0 c0
-5 -7 -10 -15 -10 -8 0 -15 5 -15 10 0 6 7 10 15 10 8 0 15 -4 15 -10z m85 0
c3 -5 -1 -10 -9 -10 -9 0 -16 5 -16 10 0 6 4 10 9 10 6 0 13 -4 16 -10z m90 0
c3 -5 -1 -10 -9 -10 -9 0 -16 5 -16 10 0 6 4 10 9 10 6 0 13 -4 16 -10z
m-2008 -157 l22 -28 1 28 c0 20 5 27 20 27 18 0 20 -7 20 -65 0 -74 -8 -80
-52 -38 l-28 27 0 -27 c0 -20 -5 -27 -20 -27 -18 0 -20 7 -20 65 0 55 3 65 17
65 10 0 27 -12 40 -27z m179 -28 c13 -31 24 -60 24 -65 0 -16 -30 -11 -36 5
-4 8 -16 15 -29 15 -13 0 -25 -7 -29 -15 -7 -19 -36 -20 -36 -1 0 15 35 98 46
109 18 18 37 3 60 -48z m82 25 c9 -16 19 -30 22 -30 3 0 13 14 22 30 30 53 48
39 48 -35 0 -53 -3 -65 -16 -65 -9 0 -18 9 -21 20 -5 19 -6 20 -19 3 -13 -17
-15 -17 -28 0 -13 17 -14 16 -19 -3 -3 -11 -12 -20 -21 -20 -13 0 -16 12 -16
65 0 74 18 88 48 35z m207 10 c0 -8 -13 -18 -30 -21 l-30 -7 28 -1 c16 -1 27
-7 27 -15 0 -8 -12 -17 -27 -19 -26 -4 -26 -4 5 -6 25 -1 32 -5 32 -21 0 -17
-7 -20 -50 -20 l-50 0 0 66 0 65 48 -3 c34 -2 47 -7 47 -18z m152 -10 c9 -16
20 -30 23 -30 3 0 14 14 25 32 10 18 20 27 23 20 2 -6 -6 -24 -17 -38 -12 -15
-21 -37 -21 -50 0 -12 -4 -26 -10 -29 -6 -4 -10 5 -10 20 0 15 -8 39 -18 53
-30 43 -34 52 -23 52 5 0 18 -13 28 -30z m183 10 c26 -26 25 -64 -2 -90 -28
-26 -56 -25 -85 2 -29 27 -29 61 -1 88 28 25 62 26 88 0z m62 -32 c3 -49 5
-53 28 -53 22 0 25 5 28 45 5 71 24 76 20 5 -3 -55 -5 -60 -30 -69 -42 -15
-68 14 -68 76 0 65 18 62 22 -4z m189 42 c21 -12 25 -50 7 -68 -9 -9 -9 -15 0
-24 22 -22 12 -32 -11 -10 -30 28 -57 29 -57 1 0 -11 -4 -17 -10 -14 -11 7
-14 108 -3 118 10 10 52 8 74 -3z m108 -58 l20 -27 1 48 c0 26 5 47 10 47 6 0
10 -29 10 -67 l-1 -68 -44 48 -45 49 0 -47 c0 -28 -4 -44 -10 -40 -11 7 -14
108 -3 119 7 7 20 -6 62 -62z m147 13 c26 -60 32 -91 11 -64 -7 9 -27 18 -44
21 -26 3 -34 0 -39 -14 -3 -10 -10 -18 -16 -18 -5 0 -8 4 -6 8 2 4 14 33 27
65 14 31 29 57 33 57 5 0 20 -25 34 -55z m90 -7 c8 -27 18 -22 44 24 l24 42 8
-29 c7 -29 3 -93 -7 -103 -3 -3 -5 17 -5 44 l-1 49 -20 -37 c-11 -21 -23 -38
-27 -38 -4 0 -17 17 -30 38 -20 32 -22 34 -18 10 4 -14 2 -37 -3 -50 -8 -18
-10 -7 -10 47 l-1 70 20 -25 c11 -14 22 -33 26 -42z m194 52 c0 -5 -16 -10
-36 -10 -28 0 -35 -3 -32 -17 3 -13 12 -17 30 -15 15 1 29 -2 33 -8 4 -6 -7
-10 -27 -10 -27 0 -34 -4 -35 -20 -2 -17 4 -20 38 -20 24 0 38 -4 34 -10 -3
-5 -24 -10 -45 -10 l-38 0 -4 61 c-1 33 -1 63 1 65 9 9 81 3 81 -6z m90 -18
c0 -29 4 -31 63 -23 4 1 7 13 7 28 0 14 3 23 8 19 10 -11 11 -115 1 -122 -5
-3 -9 9 -9 25 0 29 -3 31 -35 31 -32 0 -35 -2 -35 -30 0 -16 -4 -30 -10 -30
-6 0 -10 28 -10 65 0 37 4 65 10 65 6 0 10 -13 10 -28z m200 18 c0 -5 -16 -10
-35 -10 -24 0 -35 -5 -35 -15 0 -8 8 -16 18 -17 9 0 22 -2 29 -2 30 -3 22 -16
-10 -16 -30 0 -37 -4 -37 -20 0 -17 7 -20 41 -20 24 0 38 -4 34 -10 -3 -5 -24
-10 -46 -10 l-39 0 0 65 0 65 40 0 c22 0 40 -4 40 -10z m112 -7 c22 -20 23
-36 3 -53 -11 -9 -13 -16 -5 -24 5 -5 10 -17 9 -25 0 -12 -4 -10 -16 7 -17 25
-53 30 -53 8 0 -8 -4 -18 -10 -21 -6 -4 -10 18 -10 59 l0 66 32 0 c17 0 40 -7
50 -17z m128 7 c0 -5 -16 -10 -35 -10 -24 0 -35 -5 -35 -15 0 -8 7 -16 15 -16
28 -3 33 -4 41 -11 4 -5 -7 -8 -24 -8 -25 0 -32 -4 -32 -20 0 -16 7 -20 35
-20 19 0 35 -4 35 -10 0 -5 -20 -10 -45 -10 l-45 0 0 65 0 65 45 0 c25 0 45
-4 45 -10z m-2095 -230 c34 -13 27 -35 -11 -35 -24 0 -29 -4 -29 -25 0 -21 5
-25 29 -25 36 0 46 -22 15 -33 -37 -14 -70 -2 -84 31 -16 38 -6 68 26 84 29
15 22 15 54 3z m157 -23 c26 -40 -7 -97 -55 -97 -78 0 -92 98 -17 122 18 6 62
-9 72 -25z m130 6 c22 -20 23 -61 1 -85 -11 -13 -30 -18 -65 -18 l-48 0 0 60
0 60 47 0 c29 0 53 -6 65 -17z m128 2 c0 -10 -11 -16 -32 -16 -31 -2 -31 -2
-5 -6 34 -5 36 -33 2 -33 -14 0 -25 -4 -25 -10 0 -5 14 -10 30 -10 20 0 30 -5
30 -15 0 -11 -12 -15 -50 -15 l-50 0 0 60 0 60 50 0 c38 0 50 -4 50 -15z m218
8 c-30 -3 -38 -9 -38 -24 0 -14 7 -19 30 -19 17 0 30 -4 30 -10 0 -5 -13 -10
-30 -10 -25 0 -30 -4 -30 -25 0 -14 -4 -25 -10 -25 -6 0 -10 27 -10 60 l0 60
48 -2 c43 -1 44 -2 10 -5z m136 -9 c20 -19 20 -24 1 -51 -10 -14 -12 -24 -5
-28 5 -3 10 -11 10 -17 0 -6 -10 -2 -23 10 -30 28 -45 28 -57 0 -7 -18 -9 -8
-9 40 l-1 62 34 0 c19 0 42 -7 50 -16z m96 8 c0 -4 -5 -13 -12 -20 -9 -9 -8
-16 5 -30 9 -10 17 -23 17 -29 0 -11 50 -24 62 -16 15 9 8 35 -12 40 -18 5
-18 7 -4 28 15 23 14 24 -18 28 -26 3 -23 4 15 5 l47 2 -15 -24 c-14 -21 -14
-25 0 -36 20 -16 19 -46 -1 -54 -25 -9 -59 -7 -71 5 -8 8 -13 8 -17 0 -9 -14
-63 -14 -71 -1 -4 6 6 9 26 8 39 -4 54 26 19 37 -20 6 -20 8 -6 30 15 23 15
24 -17 28 -27 3 -26 4 11 5 23 1 42 -2 42 -6z m208 -4 c28 -28 6 -66 -42 -70
-17 -2 -26 -8 -26 -20 0 -10 -4 -18 -10 -18 -6 0 -10 27 -10 60 l0 60 38 0
c21 0 43 -5 50 -12z m62 -48 c0 -33 -4 -60 -10 -60 -5 0 -10 24 -10 54 0 44
-4 55 -17 59 -11 3 -7 5 10 6 27 1 27 0 27 -59z m50 28 l0 -32 35 34 c19 18
37 31 40 29 3 -3 -6 -16 -20 -29 l-24 -23 26 -33 c30 -40 19 -46 -12 -7 -23
28 -45 25 -45 -8 0 -10 -4 -19 -10 -19 -6 0 -10 27 -10 60 0 33 4 60 10 60 6
0 10 -14 10 -32z m-1250 -238 c0 -5 -4 -10 -10 -10 -5 0 -10 5 -10 10 0 6 5
10 10 10 6 0 10 -4 10 -10z m90 0 c0 -5 -4 -10 -10 -10 -5 0 -10 5 -10 10 0 6
5 10 10 10 6 0 10 -4 10 -10z m90 0 c0 -5 -4 -10 -10 -10 -5 0 -10 5 -10 10 0
6 5 10 10 10 6 0 10 -4 10 -10z m90 0 c0 -5 -4 -10 -10 -10 -5 0 -10 5 -10 10
0 6 5 10 10 10 6 0 10 -4 10 -10z m90 0 c0 -5 -7 -10 -16 -10 -8 0 -12 5 -9
10 3 6 10 10 16 10 5 0 9 -4 9 -10z m85 0 c3 -5 -1 -10 -9 -10 -9 0 -16 5 -16
10 0 6 4 10 9 10 6 0 13 -4 16 -10z m90 0 c3 -5 -1 -10 -9 -10 -9 0 -16 5 -16
10 0 6 4 10 9 10 6 0 13 -4 16 -10z m85 0 c0 -5 -4 -10 -10 -10 -5 0 -10 5
-10 10 0 6 5 10 10 10 6 0 10 -4 10 -10z m90 0 c0 -5 -4 -10 -10 -10 -5 0 -10
5 -10 10 0 6 5 10 10 10 6 0 10 -4 10 -10z m90 0 c0 -5 -4 -10 -10 -10 -5 0
-10 5 -10 10 0 6 5 10 10 10 6 0 10 -4 10 -10z m90 0 c0 -5 -4 -10 -10 -10 -5
0 -10 5 -10 10 0 6 5 10 10 10 6 0 10 -4 10 -10z m90 0 c0 -5 -4 -10 -10 -10
-5 0 -10 5 -10 10 0 6 5 10 10 10 6 0 10 -4 10 -10z m90 0 c0 -5 -4 -10 -10
-10 -5 0 -10 5 -10 10 0 6 5 10 10 10 6 0 10 -4 10 -10z m85 0 c3 -5 -1 -10
-10 -10 -9 0 -13 5 -10 10 3 6 8 10 10 10 2 0 7 -4 10 -10z m90 0 c3 -5 -1
-10 -9 -10 -9 0 -16 5 -16 10 0 6 4 10 9 10 6 0 13 -4 16 -10z m85 0 c0 -5 -4
-10 -10 -10 -5 0 -10 5 -10 10 0 6 5 10 10 10 6 0 10 -4 10 -10z m90 0 c0 -5
-4 -10 -10 -10 -5 0 -10 5 -10 10 0 6 5 10 10 10 6 0 10 -4 10 -10z m90 0 c0
-5 -4 -10 -10 -10 -5 0 -10 5 -10 10 0 6 5 10 10 10 6 0 10 -4 10 -10z m90 0
c0 -5 -4 -10 -10 -10 -5 0 -10 5 -10 10 0 6 5 10 10 10 6 0 10 -4 10 -10z m90
0 c0 -5 -4 -10 -10 -10 -5 0 -10 5 -10 10 0 6 5 10 10 10 6 0 10 -4 10 -10z
m90 0 c0 -5 -7 -10 -16 -10 -8 0 -12 5 -9 10 3 6 10 10 16 10 5 0 9 -4 9 -10z
m90 0 c0 -5 -7 -10 -16 -10 -8 0 -12 5 -9 10 3 6 10 10 16 10 5 0 9 -4 9 -10z
m85 0 c3 -5 -1 -10 -9 -10 -9 0 -16 5 -16 10 0 6 4 10 9 10 6 0 13 -4 16 -10z
m85 0 c0 -5 -4 -10 -10 -10 -5 0 -10 5 -10 10 0 6 5 10 10 10 6 0 10 -4 10
-10z m90 0 c0 -5 -4 -10 -10 -10 -5 0 -10 5 -10 10 0 6 5 10 10 10 6 0 10 -4
10 -10z m-1535 -245 c0 -23 -5 -31 -21 -33 -24 -3 -38 20 -28 50 4 13 13 18
27 16 17 -2 22 -10 22 -33z m62 -17 c-2 -13 -4 -5 -4 17 -1 22 1 32 4 23 2
-10 2 -28 0 -40z m100 23 c-4 -19 -2 -31 6 -35 7 -2 0 -5 -15 -5 -32 -1 -35 5
-11 31 15 17 15 18 0 18 -10 0 -17 5 -17 10 0 6 10 10 21 10 18 0 21 -4 16
-29z m98 -3 c0 -26 -5 -34 -22 -36 -13 -2 -23 2 -23 8 0 7 7 10 15 6 8 -3 15
-1 15 4 0 6 -5 10 -11 10 -6 0 -9 6 -6 14 3 8 1 17 -6 20 -7 2 -1 5 13 5 22 1
26 -3 25 -31z m81 16 c-3 -8 -2 -13 3 -10 13 9 23 -26 11 -38 -8 -8 -13 -7
-19 2 -5 8 -11 13 -15 13 -7 -1 -8 8 0 32 3 9 10 17 16 17 5 0 7 -7 4 -16z
m106 7 c-10 -6 -10 -10 2 -20 8 -7 12 -19 9 -27 -6 -16 -43 -19 -43 -3 0 5 4
8 9 4 5 -3 12 -1 16 5 3 5 -1 10 -9 10 -9 0 -16 9 -16 20 0 14 7 20 23 20 15
0 18 -3 9 -9z m93 0 c-3 -5 -1 -12 5 -16 5 -3 10 -15 10 -26 0 -23 -38 -27
-46 -5 -7 17 12 56 27 56 6 0 8 -4 4 -9z m105 5 c0 -16 -24 -66 -32 -66 -6 0
-7 7 -4 15 3 8 9 22 13 32 4 10 3 14 -5 9 -6 -3 -13 -2 -17 4 -4 6 5 10 19 10
14 0 26 -2 26 -4z m90 -32 c0 -31 -3 -35 -22 -32 -17 2 -23 10 -23 28 0 34 3
40 26 40 15 0 19 -7 19 -36z m97 20 c7 -19 -7 -46 -28 -52 -8 -3 -11 -1 -7 3
4 5 3 14 -3 21 -14 17 -4 44 16 44 9 0 18 -7 22 -16z m98 -19 c0 -23 -5 -31
-21 -33 -24 -3 -38 20 -28 50 4 13 13 18 27 16 17 -2 22 -10 22 -33z m-687
-267 l3 -138 -141 0 -140 0 0 140 0 141 138 -3 137 -3 3 -137z m155 97 c0 -39
-1 -40 -36 -43 -24 -2 -37 -8 -37 -18 0 -8 7 -14 16 -14 9 0 18 -9 21 -19 3
-11 13 -21 24 -24 16 -4 19 -14 19 -61 0 -43 3 -56 15 -56 12 0 15 16 15 80
l0 80 40 0 c29 0 40 4 40 15 0 8 -9 15 -20 15 -15 0 -20 7 -20 25 0 25 1 25
80 25 79 0 80 0 80 -25 0 -16 -6 -25 -15 -25 -8 0 -15 -7 -15 -15 0 -8 7 -15
15 -15 11 0 15 -12 15 -45 0 -37 -3 -45 -18 -45 -10 0 -19 -7 -19 -15 0 -8 9
-15 19 -15 11 0 18 -7 18 -20 0 -13 -7 -20 -20 -20 -11 0 -20 7 -20 15 0 8 -9
15 -20 15 -11 0 -20 -7 -20 -15 0 -8 -9 -15 -20 -15 -13 0 -20 7 -20 20 0 13
7 20 20 20 11 0 20 7 20 15 0 11 -11 15 -38 15 -38 0 -38 0 -34 -35 3 -21 10
-35 18 -35 8 0 14 -9 14 -20 0 -11 -7 -20 -15 -20 -8 0 -15 -7 -15 -15 0 -13
31 -21 63 -16 4 0 7 -10 7 -24 0 -22 -4 -25 -35 -25 -33 0 -35 -2 -35 -35 0
-24 5 -35 15 -35 8 0 15 7 15 15 0 8 9 15 20 15 18 0 20 -7 20 -60 0 -54 -2
-60 -20 -60 -14 0 -20 -6 -18 -17 2 -14 -5 -19 -32 -21 -57 -6 -65 -42 -9 -42
17 0 32 -6 35 -15 4 -10 20 -15 45 -15 l39 0 0 55 c0 48 2 55 20 55 16 0 20
-7 20 -35 0 -28 4 -35 20 -35 17 0 20 7 20 39 0 59 -8 71 -46 71 l-34 0 0 60
c0 46 3 60 15 61 8 1 25 2 38 3 18 1 23 8 25 39 l3 37 60 0 59 0 0 -40 c0 -34
-3 -40 -21 -40 -14 0 -19 -5 -17 -17 5 -26 27 -27 37 -2 6 18 16 24 41 24 38
0 53 23 21 32 -12 3 -21 13 -21 24 0 15 7 19 40 19 l40 0 0 -40 c0 -33 -3 -40
-20 -40 -13 0 -20 -7 -20 -20 0 -17 -7 -20 -40 -20 -33 0 -40 -3 -40 -20 0
-13 -7 -20 -20 -20 -11 0 -20 -7 -20 -15 0 -8 9 -15 20 -15 13 0 20 -7 20 -20
0 -13 7 -20 20 -20 16 0 20 7 20 35 0 35 7 40 51 36 9 -1 19 7 22 19 3 12 13
20 26 20 18 0 21 -6 21 -40 0 -33 -3 -40 -20 -40 -17 0 -20 -7 -20 -40 0 -33
-4 -40 -19 -40 -10 0 -21 9 -24 20 -3 11 -12 20 -21 20 -9 0 -16 -8 -16 -20 0
-17 -7 -20 -40 -20 -29 0 -40 -4 -40 -15 0 -8 9 -15 20 -15 17 0 20 -7 20 -40
0 -33 3 -40 20 -40 13 0 20 -7 20 -20 0 -27 30 -26 37 1 5 16 12 19 42 17 35
-3 36 -5 39 -45 3 -38 1 -43 -17 -43 -12 0 -21 -7 -21 -15 0 -11 -11 -15 -40
-15 -29 0 -40 4 -40 15 0 8 -9 15 -20 15 -16 0 -20 -7 -20 -35 0 -34 1 -35 40
-35 33 0 40 -3 40 -20 0 -12 7 -20 16 -20 9 0 18 9 21 20 3 11 14 20 24 20 17
0 19 -8 19 -60 l0 -60 -40 0 c-39 0 -40 1 -40 35 0 28 -4 35 -20 35 -16 0 -20
-7 -20 -35 0 -34 -1 -35 -40 -35 -33 0 -40 3 -40 20 0 13 7 20 20 20 16 0 20
7 20 35 0 28 -4 35 -20 35 -11 0 -20 -7 -20 -15 0 -8 -9 -15 -20 -15 -16 0
-20 7 -20 35 0 34 -1 35 -40 35 -29 0 -40 -4 -40 -15 0 -8 9 -15 20 -15 18 0
20 -7 20 -60 l0 -60 -60 0 c-47 0 -60 3 -60 15 0 8 -9 15 -20 15 -11 0 -20 -7
-20 -15 0 -8 -9 -15 -20 -15 -11 0 -20 7 -20 15 0 12 -15 15 -74 15 -56 0 -75
-4 -80 -15 -3 -8 -15 -15 -26 -15 -18 0 -21 5 -18 38 3 35 5 37 41 40 50 4 50
30 0 34 -44 3 -60 35 -24 45 12 3 21 12 21 19 0 21 116 20 124 -1 8 -22 36
-18 36 4 0 20 -3 21 -121 37 -43 5 -51 11 -100 75 -30 38 -62 69 -71 69 -10 0
-18 7 -18 15 0 11 -11 15 -40 15 -33 0 -40 -3 -40 -19 0 -14 -8 -21 -26 -23
-26 -3 -26 -3 25 -67 28 -35 50 -66 47 -68 -2 -2 -31 -7 -63 -9 l-60 -6 -51
65 c-29 36 -52 68 -52 71 0 3 10 6 23 6 31 0 77 22 77 38 0 6 -9 12 -20 12
-14 0 -20 7 -20 21 0 12 8 23 20 26 11 3 20 12 20 19 0 20 76 19 84 -1 3 -8
12 -15 21 -15 8 0 15 7 15 15 0 8 9 15 20 15 16 0 20 -7 20 -35 0 -28 4 -35
20 -35 11 0 20 7 20 15 0 8 9 15 20 15 12 0 20 -7 20 -16 0 -9 -9 -18 -20 -21
-11 -3 -20 -12 -20 -20 0 -10 6 -13 16 -9 9 3 24 6 34 6 16 0 19 9 22 53 3 44
6 52 23 52 17 0 20 -8 23 -52 2 -36 7 -53 16 -53 8 0 16 7 20 15 3 8 12 15 21
15 11 0 15 10 15 35 0 28 -4 35 -20 35 -13 0 -20 7 -20 20 0 13 -7 20 -20 20
-13 0 -20 7 -20 20 0 11 -7 20 -15 20 -8 0 -15 -9 -15 -20 0 -13 -7 -20 -20
-20 -13 0 -20 -7 -20 -20 0 -13 -7 -20 -20 -20 -13 0 -20 7 -20 20 0 13 -7 20
-20 20 -13 0 -20 7 -20 20 0 13 -7 20 -20 20 -13 0 -20 7 -20 20 0 16 -7 20
-34 20 -26 0 -36 -5 -41 -20 -5 -16 -15 -20 -46 -20 l-39 0 0 60 0 60 40 0
c29 0 40 -4 40 -15 0 -8 9 -15 20 -15 12 0 20 7 20 16 0 10 7 14 23 12 17 -2
22 -10 22 -33 0 -20 5 -31 18 -33 10 -2 17 3 17 12 0 9 7 16 16 16 9 0 18 9
21 20 4 15 14 20 39 20 l34 0 0 80 c0 73 2 80 20 80 11 0 20 7 20 15 0 8 -9
15 -21 15 -18 0 -20 5 -17 43 3 41 4 42 39 45 27 2 38 8 42 23 4 13 12 19 23
17 13 -2 17 -13 17 -43z m555 -97 l3 -138 -141 0 -140 0 0 133 c0 74 3 137 7
141 4 3 66 5 137 4 l131 -3 3 -137z m-318 -198 c0 -13 -7 -20 -20 -20 -13 0
-20 7 -20 20 0 13 7 20 20 20 13 0 20 -7 20 -20z m318 -317 c-5 -26 -38 -29
-38 -4 0 15 6 21 21 21 14 0 19 -5 17 -17z m-1151 -80 l45 -63 -64 0 -64 0
-42 60 c-23 32 -42 62 -42 65 0 3 28 5 61 3 l61 -3 45 -62z m-269 -12 c23 -32
39 -61 35 -65 -3 -3 -28 -6 -54 -6 -48 0 -49 1 -89 59 -22 33 -40 62 -40 65 0
4 24 6 54 6 l53 0 41 -59z m-244 -11 c20 -28 36 -55 36 -60 0 -6 -22 -10 -49
-10 -47 0 -49 1 -85 55 -20 30 -36 57 -36 60 0 3 22 5 49 5 47 0 50 -2 85 -50z
m951 -136 l0 -89 -137 -3 -138 -3 0 86 c0 82 1 85 23 85 22 0 23 -4 23 -62
l-1 -63 93 -3 92 -3 0 69 c0 74 3 81 28 78 14 -3 17 -16 17 -92z m-75 36 l0
-50 -60 0 -60 0 0 44 c0 44 0 45 38 49 88 9 82 12 82 -43z m-693 -76 c-3 -3
-12 -4 -19 -1 -8 3 -5 6 6 6 11 1 17 -2 13 -5z m135 -64 c20 0 27 -4 22 -12
-5 -7 -2 -9 7 -6 8 3 23 2 34 -3 14 -5 3 -8 -35 -8 -39 -1 -51 2 -40 9 13 8
13 10 -1 10 -9 0 -47 -22 -85 -50 -38 -27 -72 -50 -75 -50 -4 0 -28 9 -54 20
l-47 20 49 40 48 40 74 -5 c41 -3 87 -5 103 -5z m312 -121 l41 -18 -81 1 c-79
2 -81 2 -139 -40 -32 -23 -61 -42 -65 -42 -4 0 -31 10 -60 23 l-53 23 59 43
59 42 99 -7 c63 -4 115 -13 140 -25z m261 -106 c70 -28 65 -35 -21 -28 l-81 7
-72 -48 -72 -47 -59 28 -60 28 63 44 62 43 100 -6 c55 -3 118 -13 140 -21z
m585 -65 c0 -10 -23 -12 -91 -10 -96 4 -232 -19 -246 -41 -5 -7 -15 -37 -23
-67 l-15 -55 -88 -3 c-78 -2 -94 0 -153 26 l-65 29 68 44 68 44 100 0 c72 0
121 7 175 22 88 26 270 33 270 11z m-103 -424 c-3 -3 -12 -4 -19 -1 -8 3 -5 6
6 6 11 1 17 -2 13 -5z"/>
<path d="M1615 5671 c-3 -6 -1 -11 4 -11 6 0 11 -5 11 -11 0 -5 -4 -7 -10 -4
-5 3 -10 1 -10 -4 0 -13 10 -14 27 -3 8 5 8 12 -2 25 -8 12 -15 14 -20 8z"/>
<path d="M2042 5465 c-15 -33 -16 -31 12 -31 21 0 23 2 14 28 -6 15 -11 28
-12 28 -2 0 -8 -11 -14 -25z"/>
<path d="M2918 5470 c4 -31 20 -37 52 -20 30 16 14 50 -24 50 -30 0 -32 -2
-28 -30z"/>
<path d="M1792 5048 c-28 -28 -7 -78 33 -78 27 0 45 18 45 45 0 27 -18 45 -45
45 -12 0 -26 -5 -33 -12z"/>
<path d="M2060 5036 c0 -22 4 -26 31 -26 26 0 30 3 27 23 -2 16 -11 23 -30 25
-24 3 -28 0 -28 -22z"/>
<path d="M2332 5030 c-7 -19 -6 -26 5 -28 22 -5 27 5 16 30 l-11 23 -10 -25z"/>
<path d="M3000 5035 c0 -23 4 -26 28 -23 19 2 27 9 27 23 0 14 -8 21 -27 23
-24 3 -28 0 -28 -23z"/>
<path d="M1174 4796 c-9 -24 4 -48 23 -44 12 2 18 12 18 28 0 29 -32 41 -41
16z"/>
<path d="M1310 4780 c0 -31 6 -35 34 -24 32 12 13 54 -25 54 -5 0 -9 -13 -9
-30z"/>
<path d="M1794 4816 c-14 -37 20 -59 56 -36 12 7 12 13 4 27 -15 24 -52 29
-60 9z"/>
<path d="M2100 4799 c0 -27 3 -30 27 -27 49 5 40 57 -9 58 -13 0 -18 -8 -18
-31z"/>
<path d="M1593 4334 c-3 -8 -1 -20 6 -27 8 -8 11 -4 11 16 0 30 -7 35 -17 11z"/>
<path d="M2330 4309 c0 -5 5 -7 10 -4 6 3 10 8 10 11 0 2 -4 4 -10 4 -5 0 -10
-5 -10 -11z"/>
<path d="M2523 4334 c-3 -8 -1 -20 6 -27 8 -8 11 -4 11 16 0 30 -7 35 -17 11z"/>
<path d="M1640 4055 l0 -95 90 0 90 0 0 95 0 95 -90 0 -90 0 0 -95z m148 3
l-3 -63 -55 0 -55 0 -3 63 -3 62 61 0 61 0 -3 -62z"/>
<path d="M2143 4055 c0 -8 9 -15 19 -15 10 0 18 7 18 15 0 8 -8 15 -18 15 -10
0 -19 -7 -19 -15z"/>
<path d="M2180 4015 c0 -8 9 -15 20 -15 11 0 20 7 20 15 0 8 -9 15 -20 15 -11
0 -20 -7 -20 -15z"/>
<path d="M1950 3935 c0 -48 -2 -55 -20 -55 -13 0 -20 -7 -20 -20 0 -17 7 -20
40 -20 30 0 40 -4 40 -16 0 -9 -9 -18 -20 -21 -11 -3 -20 -14 -20 -24 0 -15 6
-18 33 -16 32 2 32 3 35 60 3 52 1 57 -18 57 -18 0 -20 6 -20 55 0 42 -3 55
-15 55 -12 0 -15 -13 -15 -55z"/>
<path d="M2070 3900 c0 -11 7 -20 15 -20 8 0 15 9 15 20 0 11 -7 20 -15 20 -8
0 -15 -9 -15 -20z"/>
<path d="M1830 3825 c0 -8 7 -15 16 -15 9 0 18 -9 21 -20 9 -35 33 -24 33 15
0 33 -2 35 -35 35 -24 0 -35 -5 -35 -15z"/>
<path d="M2347 3834 c-13 -13 -7 -24 14 -24 11 0 19 5 17 12 -5 14 -22 21 -31
12z"/>
<path d="M1790 3785 c0 -8 9 -15 20 -15 11 0 20 7 20 15 0 8 -9 15 -20 15 -11
0 -20 -7 -20 -15z"/>
<path d="M1830 3745 c0 -8 7 -15 15 -15 8 0 15 7 15 15 0 8 -7 15 -15 15 -8 0
-15 -7 -15 -15z"/>
<path d="M2070 3665 c0 -10 11 -15 35 -15 24 0 35 5 35 15 0 10 -11 15 -35 15
-24 0 -35 -5 -35 -15z"/>
<path d="M1633 3625 c0 -8 9 -15 19 -15 10 0 18 7 18 15 0 8 -8 15 -18 15 -10
0 -19 -7 -19 -15z"/>
<path d="M2343 3625 c0 -8 9 -15 19 -15 10 0 18 7 18 15 0 8 -8 15 -18 15 -10
0 -19 -7 -19 -15z"/>
<path d="M2269 3495 c-4 -88 -9 -80 51 -80 52 0 54 1 53 28 -3 84 2 77 -53 77
-46 0 -50 -2 -51 -25z m71 -30 c0 -18 -5 -25 -20 -25 -20 0 -28 28 -13 43 15
16 33 6 33 -18z"/>
<path d="M2141 3452 c-8 -20 -9 -36 -2 -55 12 -32 41 -36 41 -7 0 13 7 20 20
20 11 0 20 7 20 15 0 8 -9 15 -20 15 -13 0 -20 7 -20 20 0 30 -26 24 -39 -8z"/>
<path d="M1990 3345 c0 -8 7 -15 15 -15 8 0 15 7 15 15 0 8 -7 15 -15 15 -8 0
-15 -7 -15 -15z"/>
<path d="M2102 3285 c1 -26 7 -35 20 -35 11 0 18 7 18 20 0 13 7 20 20 20 13
0 20 -7 20 -20 0 -13 7 -20 20 -20 13 0 20 7 20 20 0 13 7 20 20 20 11 0 20 7
20 15 0 12 -16 15 -80 15 l-81 0 3 -35z"/>
<path d="M2349 4143 c-3 -32 -4 -161 -1 -170 3 -9 31 -13 93 -13 l89 0 0 95 0
95 -90 0 c-49 0 -90 -3 -91 -7z m149 -85 l-3 -63 -57 -3 -58 -3 0 66 0 65 60
0 61 0 -3 -62z"/>
<path d="M1147 3189 c7 -7 15 -10 18 -7 3 3 -2 9 -12 12 -14 6 -15 5 -6 -5z"/>
<path d="M1637 6099 c4 -13 8 -18 11 -10 2 7 -1 18 -6 23 -8 8 -9 4 -5 -13z"/>
<path d="M2398 6108 c10 -13 10 -17 0 -21 -9 -4 -8 -6 3 -6 9 -1 23 7 30 16
10 12 11 15 1 9 -7 -4 -20 -2 -30 6 -15 12 -16 11 -4 -4z"/>
<path d="M1710 6100 c0 -5 5 -10 11 -10 5 0 7 5 4 10 -3 6 -8 10 -11 10 -2 0
-4 -4 -4 -10z"/>
<path d="M1895 6100 c3 -5 8 -10 11 -10 2 0 4 5 4 10 0 6 -5 10 -11 10 -5 0
-7 -4 -4 -10z"/>
<path d="M2620 6085 c0 -8 4 -15 10 -15 5 0 7 7 4 15 -4 8 -8 15 -10 15 -2 0
-4 -7 -4 -15z"/>
<path d="M1526 6082 c-3 -5 1 -9 9 -9 8 0 12 4 9 9 -3 4 -7 8 -9 8 -2 0 -6 -4
-9 -8z"/>
<path d="M1870 6080 c0 -5 5 -10 11 -10 5 0 7 5 4 10 -3 6 -8 10 -11 10 -2 0
-4 -4 -4 -10z"/>
<path d="M2004 6068 c0 -12 8 -23 16 -25 12 -4 13 -3 1 5 -7 5 -11 14 -7 20 3
6 2 13 -2 16 -5 3 -9 -4 -8 -16z"/>
<path d="M2241 6074 c0 -11 3 -14 6 -6 3 7 2 16 -1 19 -3 4 -6 -2 -5 -13z"/>
<path d="M2490 6080 c0 -5 5 -10 10 -10 6 0 10 5 10 10 0 6 -4 10 -10 10 -5 0
-10 -4 -10 -10z"/>
<path d="M2550 6079 c0 -5 5 -7 10 -4 6 3 10 8 10 11 0 2 -4 4 -10 4 -5 0 -10
-5 -10 -11z"/>
<path d="M1945 6070 c3 -5 8 -10 11 -10 2 0 4 5 4 10 0 6 -5 10 -11 10 -5 0
-7 -4 -4 -10z"/>
<path d="M1657 6057 c-3 -8 1 -14 8 -14 7 0 11 6 8 14 -3 7 -6 13 -8 13 -2 0
-5 -6 -8 -13z"/>
<path d="M1726 6053 c-6 -14 -5 -15 5 -6 7 7 10 15 7 18 -3 3 -9 -2 -12 -12z"/>
<path d="M2110 6061 c0 -10 19 -25 25 -20 1 2 -3 10 -11 17 -8 7 -14 8 -14 3z"/>
<path d="M1955 6050 c-16 -7 -17 -9 -3 -9 9 -1 20 4 23 9 7 11 7 11 -20 0z"/>
<path d="M2546 6052 c-2 -4 4 -8 14 -8 10 0 16 4 14 8 -3 4 -9 8 -14 8 -5 0
-11 -4 -14 -8z"/>
<path d="M2597 6043 c3 -8 -3 -13 -16 -14 -40 -3 -44 -4 -54 -20 -8 -12 -6
-27 7 -53 17 -37 30 -44 41 -26 4 6 24 22 46 36 43 27 52 59 19 69 -11 4 -18
10 -16 14 3 4 -4 7 -14 7 -10 0 -16 -6 -13 -13z"/>
<path d="M2158 6043 c6 -2 18 -2 25 0 6 3 1 5 -13 5 -14 0 -19 -2 -12 -5z"/>
<path d="M2208 6043 c7 -3 16 -2 19 1 4 3 -2 6 -13 5 -11 0 -14 -3 -6 -6z"/>
<path d="M2692 6028 c7 -19 43 -21 58 -3 11 13 8 15 -25 15 -25 0 -35 -4 -33
-12z"/>
<path d="M2243 5956 c3 -10 14 -11 47 -7 24 3 7 18 -20 18 -18 0 -29 -5 -27
-11z"/>
<path d="M1505 5950 c-13 -6 -15 -9 -5 -9 8 0 22 4 30 9 18 12 2 12 -25 0z"/>
<path d="M1666 5951 c-4 -5 1 -8 9 -7 21 3 31 16 12 16 -9 0 -18 -4 -21 -9z"/>
<path d="M2838 5953 c7 -3 16 -2 19 1 4 3 -2 6 -13 5 -11 0 -14 -3 -6 -6z"/>
<path d="M913 5943 c-43 -6 -42 -23 0 -23 23 0 34 5 34 15 0 8 -1 14 -1 13 -1
0 -16 -3 -33 -5z"/>
<path d="M1225 5940 c3 -5 8 -10 11 -10 2 0 4 5 4 10 0 6 -5 10 -11 10 -5 0
-7 -4 -4 -10z"/>
<path d="M1405 5930 c-3 -5 1 -10 9 -10 8 0 18 5 21 10 3 6 -1 10 -9 10 -8 0
-18 -4 -21 -10z"/>
<path d="M1831 5923 c-18 -19 -14 -20 44 -10 30 6 53 12 50 15 -10 10 -83 6
-94 -5z"/>
<path d="M1630 5920 c-12 -8 -10 -10 8 -10 13 0 20 4 17 10 -7 12 -6 12 -25 0z"/>
<path d="M1202 5888 c2 -31 13 -37 22 -12 10 26 7 41 -9 41 -10 0 -14 -9 -13
-29z"/>
<path d="M1780 5916 c0 -2 7 -6 15 -10 8 -3 15 -1 15 4 0 6 -7 10 -15 10 -8 0
-15 -2 -15 -4z"/>
<path d="M1928 5878 c9 -9 15 -9 24 0 9 9 7 12 -12 12 -19 0 -21 -3 -12 -12z"/>
<path d="M1970 5880 c0 -5 5 -10 11 -10 5 0 7 5 4 10 -3 6 -8 10 -11 10 -2 0
-4 -4 -4 -10z"/>
<path d="M1358 5853 c7 -3 16 -2 19 1 4 3 -2 6 -13 5 -11 0 -14 -3 -6 -6z"/>
<path d="M1140 5762 c0 -5 14 -7 30 -4 17 2 30 6 30 8 0 2 -13 4 -30 4 -16 0
-30 -4 -30 -8z"/>
<path d="M2566 5735 c-10 -26 -7 -35 9 -35 17 0 19 18 6 38 -7 11 -10 10 -15
-3z"/>
<path d="M1380 5701 c0 -15 25 -30 38 -22 9 5 5 11 -13 19 -14 6 -25 8 -25 3z"/>
<path d="M781 5604 c-1 -31 2 -44 11 -44 10 0 12 12 10 40 -6 56 -18 58 -21 4z"/>
<path d="M1002 5627 c-8 -9 -20 -13 -28 -10 -8 3 -14 1 -14 -5 0 -9 51 -24 58
-17 2 2 2 13 0 26 -3 20 -4 21 -16 6z"/>
<path d="M4864 3378 c1 -50 4 -63 18 -66 14 -3 17 6 20 45 l3 48 58 3 57 3 0
-61 c0 -60 0 -60 -29 -60 -20 0 -30 -6 -34 -20 -5 -18 0 -20 44 -20 l49 0 0
95 0 95 -94 0 -94 0 2 -62z"/>
<path d="M4625 3370 c21 -24 26 -25 19 -6 -3 8 -13 17 -22 21 -13 5 -13 2 3
-15z"/>
<path d="M4585 3360 c3 -5 8 -10 11 -10 2 0 4 5 4 10 0 6 -5 10 -11 10 -5 0
-7 -4 -4 -10z"/>
<path d="M4706 3356 c7 -19 -7 -21 -24 -4 -9 9 -16 7 -31 -6 -12 -11 -29 -16
-41 -13 -14 3 -20 0 -20 -10 0 -11 7 -14 25 -9 20 5 25 3 25 -12 0 -10 3 -21
6 -25 10 -10 51 22 57 44 4 13 10 18 17 14 8 -5 11 -1 8 10 -1 10 -9 20 -16
23 -7 2 -10 -2 -6 -12z"/>
<path d="M4533 3304 c-7 -19 11 -41 21 -25 4 6 3 11 -3 11 -6 0 -8 7 -5 15 4
8 3 15 0 15 -4 0 -9 -7 -13 -16z"/>
<path d="M4422 3275 c-11 -13 -10 -15 7 -15 14 0 19 5 15 15 -7 18 -6 18 -22
0z"/>
<path d="M4340 3145 c0 -8 4 -15 10 -15 5 0 7 7 4 15 -4 8 -8 15 -10 15 -2 0
-4 -7 -4 -15z"/>
<path d="M4725 3149 c-4 -6 -5 -12 -2 -15 7 -7 37 7 37 17 0 13 -27 11 -35 -2z"/>
<path d="M4783 3097 c-3 -7 -3 -9 2 -5 4 4 16 3 26 -3 11 -5 19 -6 19 -1 0 15
-39 22 -47 9z"/>
<path d="M4835 3066 c-11 -9 -28 -16 -37 -16 -12 0 -18 -8 -18 -22 0 -20 1
-20 18 -5 24 22 32 21 32 -2 0 -17 27 -37 37 -27 3 2 1 23 -4 46 -8 39 -9 40
-28 26z"/>
<path d="M4600 3050 c0 -5 5 -10 10 -10 6 0 10 5 10 10 0 6 -4 10 -10 10 -5 0
-10 -4 -10 -10z"/>
<path d="M4226 3027 c3 -10 9 -15 12 -12 3 3 0 11 -7 18 -10 9 -11 8 -5 -6z"/>
<path d="M4478 3013 c6 -2 18 -2 25 0 6 3 1 5 -13 5 -14 0 -19 -2 -12 -5z"/>
<path d="M4110 2980 c0 -5 4 -10 9 -10 6 0 13 5 16 10 3 6 -1 10 -9 10 -9 0
-16 -4 -16 -10z"/>
<path d="M5048 2949 c-37 -21 -16 -59 35 -64 9 -1 17 2 17 7 0 5 -9 7 -19 3
-11 -3 -22 -1 -26 5 -3 5 -2 10 2 10 5 0 9 11 9 25 0 14 0 25 0 25 -1 0 -9 -5
-18 -11z"/>
<path d="M4100 2936 c0 -9 5 -16 10 -16 6 0 10 4 10 9 0 6 -4 13 -10 16 -5 3
-10 -1 -10 -9z"/>
<path d="M5090 2925 c-7 -9 -8 -15 -2 -15 5 0 12 7 16 15 3 8 4 15 2 15 -2 0
-9 -7 -16 -15z"/>
<path d="M4410 2835 c-6 -7 -7 -16 -2 -19 13 -8 13 -77 1 -93 -8 -9 -6 -54 5
-160 28 -248 24 -233 58 -233 30 0 30 0 24 48 -3 26 -13 119 -22 207 -8 88
-17 171 -19 185 -2 14 -4 35 -4 46 -1 27 -25 38 -41 19z"/>
<path d="M4723 2789 c-21 -8 -23 -15 -23 -82 0 -41 3 -115 6 -165 7 -90 7 -92
31 -86 13 4 22 2 21 -2 -2 -5 2 -11 7 -14 22 -11 11 329 -12 350 -4 4 -18 4
-30 -1z"/>
<path d="M4534 2730 c3 -36 11 -126 16 -200 17 -209 14 -200 61 -200 l40 0 -5
58 c-3 31 -11 116 -16 187 -17 204 -16 202 -54 201 -17 -1 -35 3 -39 8 -4 6
-6 -18 -3 -54z"/>
<path d="M4847 2764 c-8 -9 -10 -208 -2 -216 4 -3 17 -1 30 6 23 10 25 16 25
86 0 72 -13 120 -36 127 -5 2 -13 0 -17 -3z"/>
<path d="M4965 2724 c-12 -5 -8 -254 5 -254 4 0 16 -3 25 -6 15 -6 16 5 14
111 -2 90 -6 121 -18 135 -9 10 -20 16 -26 14z"/>
<path d="M4214 2694 c4 -10 -2 -23 -15 -33 -36 -29 -8 -105 30 -82 15 10 4
131 -11 131 -6 0 -7 -7 -4 -16z"/>
<path d="M4280 2696 c0 -33 13 -75 22 -70 5 3 19 -2 30 -13 21 -18 21 -18 15
7 -4 14 -7 34 -7 46 0 13 -10 25 -25 32 -33 15 -35 15 -35 -2z"/>
<path d="M5085 2702 l-30 -3 3 -122 c3 -112 11 -147 33 -147 5 0 9 56 9 124 0
85 4 126 12 128 22 8 2 23 -27 20z"/>
<path d="M5180 2690 c0 -5 5 -10 10 -10 6 0 10 5 10 10 0 6 -4 10 -10 10 -5 0
-10 -4 -10 -10z"/>
<path d="M5138 2510 c2 -141 6 -180 16 -180 25 0 37 264 14 327 -26 71 -33 36
-30 -147z"/>
<path d="M3990 2659 c0 -5 5 -7 10 -4 6 3 10 8 10 11 0 2 -4 4 -10 4 -5 0 -10
-5 -10 -11z"/>
<path d="M3992 2620 c6 -18 30 -20 34 -2 1 7 0 8 -3 2 -3 -7 -10 -7 -21 2 -13
11 -14 11 -10 -2z"/>
<path d="M1986 2605 c4 -8 11 -15 16 -15 6 0 5 6 -2 15 -7 8 -14 15 -16 15 -2
0 -1 -7 2 -15z"/>
<path d="M4110 2595 c-11 -13 -10 -36 9 -138 13 -67 24 -123 26 -125 2 -2 12
-2 22 0 18 3 18 6 -2 137 -11 74 -25 136 -31 138 -6 2 -17 -3 -24 -12z"/>
<path d="M4031 2553 c-8 -14 -12 -15 -25 -4 -14 12 -16 10 -16 -13 0 -15 6
-29 14 -32 8 -3 31 -27 51 -52 l37 -47 -6 50 c-13 96 -18 115 -32 115 -7 0
-17 -8 -23 -17z"/>
<path d="M4314 2478 c-3 -4 -3 -22 0 -40 17 -112 16 -108 42 -108 26 0 26 0
19 63 -3 34 -8 69 -11 77 -4 16 -42 22 -50 8z"/>
<path d="M4214 2430 c3 -14 8 -42 11 -62 5 -33 10 -38 32 -38 19 0 24 4 19 16
-3 9 -6 29 -6 45 0 16 -5 29 -12 29 -6 0 -20 8 -30 17 -19 17 -19 16 -14 -7z"/>
<path d="M4790 2422 c0 -11 -7 -25 -15 -32 -12 -10 -17 -7 -26 14 -14 30 -24
34 -25 9 -1 -10 -4 -30 -9 -46 -6 -23 -5 -26 9 -21 9 3 16 1 16 -5 0 -6 16
-11 38 -11 l37 1 -28 12 -29 12 25 22 c14 12 28 19 30 16 3 -3 3 5 0 16 -7 28
-23 37 -23 13z"/>
<path d="M4827 2434 c-8 -8 1 -24 14 -24 5 0 9 7 9 15 0 15 -12 20 -23 9z"/>
<path d="M5415 2422 c7 -23 -17 -72 -35 -72 -5 0 -14 16 -21 35 -7 19 -17 35
-22 35 -5 0 -7 -6 -4 -12 2 -7 -2 -28 -10 -45 l-13 -33 35 0 c24 0 45 8 62 24
15 14 30 23 35 20 11 -7 -2 26 -20 51 -13 19 -14 19 -7 -3z"/>
<path d="M4956 2423 c-4 -4 16 -13 46 -18 43 -9 56 -16 73 -42 11 -18 23 -32
28 -33 11 0 -18 52 -39 71 -22 19 -96 34 -108 22z"/>
<path d="M4812 2371 c-11 -7 -11 -9 2 -14 10 -4 16 -1 16 8 0 17 -1 17 -18 6z"/>
<path d="M5440 2340 c-12 -8 -10 -10 8 -10 13 0 20 4 17 10 -7 12 -6 12 -25 0z"/>
<path d="M880 2215 c0 -30 -40 -93 -80 -127 l-40 -35 0 -422 0 -421 55 -55 55
-55 1215 0 1215 0 55 55 55 55 0 421 0 421 -44 39 c-25 22 -52 59 -65 89 l-22
50 -1199 0 c-1074 0 -1200 -2 -1200 -15z m235 -495 c0 -194 -3 -254 -12 -257
-10 -4 -13 52 -13 257 0 205 3 261 13 258 9 -4 12 -64 12 -258z m45 0 c0 -224
-2 -260 -15 -260 -13 0 -15 36 -15 260 0 224 2 260 15 260 13 0 15 -36 15
-260z m50 0 c0 -224 -2 -260 -15 -260 -13 0 -15 36 -15 260 0 224 2 260 15
260 13 0 15 -36 15 -260z m120 0 c0 -224 -2 -260 -15 -260 -13 0 -15 36 -15
260 0 224 2 260 15 260 13 0 15 -36 15 -260z m50 0 c0 -224 -2 -260 -15 -260
-13 0 -15 36 -15 260 0 224 2 260 15 260 13 0 15 -36 15 -260z m90 0 l0 -260
-34 0 c-22 0 -36 6 -40 16 -3 9 -6 126 -6 260 l0 244 40 0 40 0 0 -260z m70 0
c0 -224 -2 -260 -15 -260 -13 0 -15 36 -15 260 0 224 2 260 15 260 13 0 15
-36 15 -260z m70 0 c0 -224 -2 -260 -15 -260 -13 0 -15 36 -15 260 0 224 2
260 15 260 13 0 15 -36 15 -260z m50 0 c0 -224 -2 -260 -15 -260 -13 0 -15 36
-15 260 0 224 2 260 15 260 13 0 15 -36 15 -260z m100 0 c0 -224 -2 -260 -15
-260 -13 0 -15 36 -15 260 0 224 2 260 15 260 13 0 15 -36 15 -260z m40 0 c0
-224 -2 -260 -15 -260 -13 0 -15 36 -15 260 0 224 2 260 15 260 13 0 15 -36
15 -260z m100 0 c0 -224 -2 -260 -15 -260 -13 0 -15 36 -15 260 0 224 2 260
15 260 13 0 15 -36 15 -260z m45 0 c0 -194 -3 -254 -12 -258 -10 -3 -13 53
-13 258 0 205 3 261 13 257 9 -3 12 -63 12 -257z m75 0 c0 -224 -2 -260 -15
-260 -13 0 -15 36 -15 260 0 224 2 260 15 260 13 0 15 -36 15 -260z m115 0 l0
-255 -37 -3 -38 -3 0 261 0 261 38 -3 37 -3 0 -255z m45 -1 c0 -204 -3 -260
-12 -257 -10 4 -14 64 -16 249 -1 134 0 249 3 256 2 7 9 13 15 13 7 0 10 -88
10 -261z m50 1 c0 -224 -2 -260 -15 -260 -13 0 -15 36 -15 260 0 224 2 260 15
260 13 0 15 -36 15 -260z m50 0 c0 -224 -2 -260 -15 -260 -13 0 -15 36 -15
260 0 224 2 260 15 260 13 0 15 -36 15 -260z m120 0 c0 -224 -2 -260 -15 -260
-13 0 -15 36 -15 260 0 224 2 260 15 260 13 0 15 -36 15 -260z m40 0 c0 -167
-4 -260 -10 -260 -6 0 -10 93 -10 260 0 167 4 260 10 260 6 0 10 -93 10 -260z
m100 0 c0 -224 -2 -260 -15 -260 -13 0 -15 36 -15 260 0 224 2 260 15 260 13
0 15 -36 15 -260z m45 0 c0 -194 -3 -254 -12 -257 -10 -4 -13 52 -13 257 0
205 3 261 13 258 9 -4 12 -64 12 -258z m75 0 c0 -224 -2 -260 -15 -260 -13 0
-15 36 -15 260 0 224 2 260 15 260 13 0 15 -36 15 -260z m115 0 l0 -255 -37
-3 -38 -3 0 261 0 261 38 -3 37 -3 0 -255z m45 -1 c0 -204 -3 -260 -12 -257
-10 4 -14 64 -16 249 -1 134 0 249 3 256 2 7 9 13 15 13 7 0 10 -88 10 -261z
m50 1 c0 -224 -2 -260 -15 -260 -13 0 -15 36 -15 260 0 224 2 260 15 260 13 0
15 -36 15 -260z m120 0 c0 -224 -2 -260 -15 -260 -13 0 -15 36 -15 260 0 224
2 260 15 260 13 0 15 -36 15 -260z m50 0 c0 -224 -2 -260 -15 -260 -13 0 -15
36 -15 260 0 224 2 260 15 260 13 0 15 -36 15 -260z m40 0 c0 -167 -4 -260
-10 -260 -6 0 -10 93 -10 260 0 167 4 260 10 260 6 0 10 -93 10 -260z m-1505
-410 c0 -44 -29 -54 -46 -16 -9 20 -9 29 1 41 22 27 45 14 45 -25z m72 -22
c-2 -13 -4 -3 -4 22 0 25 2 35 4 23 2 -13 2 -33 0 -45z m110 46 c3 -8 1 -20
-6 -27 -14 -14 -15 -30 -1 -22 6 3 10 1 10 -4 0 -6 -12 -11 -26 -11 l-25 0 20
29 c22 30 19 43 -7 34 -10 -4 -13 -2 -8 5 10 17 36 15 43 -4z m104 3 c-8 -10
-7 -17 1 -25 15 -15 2 -42 -22 -42 -11 0 -20 4 -20 10 0 5 7 7 15 4 9 -4 15 0
15 10 0 9 -4 16 -10 16 -5 0 -6 7 -3 17 4 11 3 14 -5 9 -7 -4 -12 -2 -12 3 0
6 12 11 26 11 21 0 24 -3 15 -13z m85 -14 c-5 -21 -4 -24 4 -13 8 13 11 13 19
1 10 -16 4 -41 -10 -41 -5 0 -9 5 -9 10 0 6 -7 10 -15 10 -18 0 -18 2 -3 35
15 33 22 32 14 -2z m122 20 c-22 -5 -24 -23 -3 -23 20 0 19 -39 -1 -47 -8 -3
-21 0 -27 7 -10 10 -8 12 5 7 10 -3 20 -2 24 4 3 6 -3 13 -15 16 -36 9 -25 44
13 42 17 -1 18 -2 4 -6z m99 -5 c-2 -7 3 -18 11 -24 18 -13 9 -44 -13 -44 -22
0 -30 27 -17 56 12 25 27 34 19 12z m123 8 c0 -11 -31 -76 -36 -76 -3 0 -4 6
-1 13 18 50 19 60 3 54 -9 -4 -16 -2 -16 3 0 6 11 10 25 10 14 0 25 -2 25 -4z
m95 -36 c0 -28 -4 -35 -20 -35 -13 0 -21 8 -23 23 -5 34 5 54 25 50 13 -2 18
-13 18 -38z m110 29 c8 -13 -14 -69 -27 -69 -5 0 -8 6 -5 13 2 6 -3 17 -10 22
-8 6 -11 18 -7 28 7 19 39 23 49 6z m105 -4 c10 -12 10 -21 1 -41 -14 -31 -45
-29 -49 4 -7 48 21 69 48 37z"/>
<path d="M1545 1328 c-4 -10 -4 -26 0 -35 6 -17 7 -17 16 0 7 11 7 23 0 35 -9
16 -10 16 -16 0z"/>
<path d="M2156 1301 c-4 -5 -2 -12 3 -15 5 -4 12 -2 15 3 4 5 2 12 -3 15 -5 4
-12 2 -15 -3z"/>
<path d="M2356 1301 c-4 -5 -2 -12 3 -15 5 -4 12 -2 15 3 4 5 2 12 -3 15 -5 4
-12 2 -15 -3z"/>
<path d="M2460 1325 c0 -8 5 -15 10 -15 6 0 10 7 10 15 0 8 -4 15 -10 15 -5 0
-10 -7 -10 -15z"/>
<path d="M2566 1325 c-7 -19 3 -47 15 -39 5 3 9 14 9 24 0 24 -16 34 -24 15z"/>
<path d="M4099 2180 c-13 -30 -40 -67 -65 -89 l-44 -39 0 -421 0 -421 55 -55
55 -55 1215 0 1215 0 55 55 55 55 0 421 0 421 -44 39 c-25 22 -52 59 -65 89
l-22 50 -1194 0 -1194 0 -22 -50z m241 -460 c0 -167 -4 -260 -10 -260 -6 0
-10 93 -10 260 0 167 4 260 10 260 6 0 10 -93 10 -260z m50 -1 c0 -204 -3
-260 -12 -257 -10 4 -14 67 -16 261 -2 224 0 257 13 257 13 0 15 -34 15 -261z
m50 1 c0 -224 -2 -260 -15 -260 -13 0 -15 36 -15 260 0 224 2 260 15 260 13 0
15 -36 15 -260z m120 0 c0 -224 -2 -260 -15 -260 -13 0 -15 36 -15 260 0 224
2 260 15 260 13 0 15 -36 15 -260z m48 3 c-2 -194 -6 -257 -15 -261 -10 -3
-13 53 -13 257 0 227 2 261 15 261 13 0 15 -33 13 -257z m92 -4 l0 -260 -37 3
-38 3 -3 245 c-1 134 0 250 3 257 2 7 20 13 40 13 l35 0 0 -261z m70 1 c0
-224 -2 -260 -15 -260 -13 0 -15 36 -15 260 0 224 2 260 15 260 13 0 15 -36
15 -260z m70 0 c0 -236 -6 -292 -24 -244 -3 9 -6 118 -6 244 0 126 3 235 6
244 18 48 24 -8 24 -244z m50 0 c0 -224 -2 -260 -15 -260 -13 0 -15 36 -15
260 0 224 2 260 15 260 13 0 15 -36 15 -260z m90 0 c0 -167 -4 -260 -10 -260
-6 0 -10 93 -10 260 0 167 4 260 10 260 6 0 10 -93 10 -260z m50 -1 c0 -204
-3 -260 -12 -257 -10 4 -14 64 -16 249 -1 134 0 249 3 256 2 7 9 13 15 13 7 0
10 -88 10 -261z m100 1 c0 -224 -2 -260 -15 -260 -13 0 -15 36 -15 260 0 224
2 260 15 260 13 0 15 -36 15 -260z m48 3 c-2 -194 -6 -257 -15 -261 -10 -3
-13 53 -13 257 0 227 2 261 15 261 13 0 15 -33 13 -257z m72 -3 c0 -224 -2
-260 -15 -260 -13 0 -15 36 -15 260 0 224 2 260 15 260 13 0 15 -36 15 -260z
m111 0 l0 -255 -36 -3 -35 -3 0 261 0 261 35 -3 36 -3 0 -255z m49 0 c0 -224
-2 -260 -15 -260 -13 0 -15 36 -15 260 0 224 2 260 15 260 13 0 15 -36 15
-260z m50 0 c0 -224 -2 -260 -15 -260 -13 0 -15 36 -15 260 0 224 2 260 15
260 13 0 15 -36 15 -260z m50 0 c0 -224 -2 -260 -15 -260 -13 0 -15 36 -15
260 0 224 2 260 15 260 13 0 15 -36 15 -260z m118 3 c-2 -194 -6 -257 -15
-261 -10 -3 -13 53 -13 257 0 227 2 261 15 261 13 0 15 -33 13 -257z m42 -4
c0 -204 -3 -260 -12 -257 -10 4 -14 64 -16 249 -1 134 0 249 3 256 2 7 9 13
15 13 7 0 10 -88 10 -261z m100 1 c0 -224 -2 -260 -15 -260 -13 0 -15 36 -15
260 0 224 2 260 15 260 13 0 15 -36 15 -260z m48 -3 c2 -224 0 -257 -13 -257
-13 0 -15 34 -15 261 0 204 3 260 13 257 9 -4 13 -67 15 -261z m72 3 c0 -224
-2 -260 -15 -260 -13 0 -15 36 -15 260 0 224 2 260 15 260 13 0 15 -36 15
-260z m111 0 l0 -255 -36 -3 -35 -3 0 261 0 261 35 -3 36 -3 0 -255z m49 0 c0
-224 -2 -260 -15 -260 -13 0 -15 36 -15 260 0 224 2 260 15 260 13 0 15 -36
15 -260z m50 0 c0 -224 -2 -260 -15 -260 -13 0 -15 36 -15 260 0 224 2 260 15
260 13 0 15 -36 15 -260z m120 0 c0 -224 -2 -260 -15 -260 -13 0 -15 36 -15
260 0 224 2 260 15 260 13 0 15 -36 15 -260z m48 3 c-2 -194 -6 -257 -15 -261
-10 -3 -13 53 -13 257 0 227 2 261 15 261 13 0 15 -33 13 -257z m42 -4 c0
-204 -3 -260 -12 -257 -10 4 -14 64 -16 249 -1 134 0 249 3 256 2 7 9 13 15
13 7 0 10 -88 10 -261z m-1502 -399 c3 -37 -13 -58 -35 -44 -23 14 -28 41 -12
60 18 22 44 13 47 -16z m69 -32 c-2 -13 -4 -3 -4 22 0 25 2 35 4 23 2 -13 2
-33 0 -45z m110 46 c3 -8 1 -20 -6 -27 -14 -14 -15 -30 -1 -22 6 3 10 1 10 -4
0 -6 -12 -11 -26 -11 l-25 0 20 29 c22 30 19 43 -7 34 -10 -4 -13 -2 -8 5 10
17 36 15 43 -4z m100 2 c-3 -7 -1 -18 5 -24 16 -16 2 -42 -22 -42 -11 0 -20 4
-20 10 0 5 7 7 15 4 9 -4 15 0 15 10 0 9 -5 16 -11 16 -5 0 -7 5 -3 11 3 6 0
15 -7 20 -10 6 -8 9 10 9 16 0 21 -4 18 -14z m89 -13 c-5 -21 -4 -24 4 -13 8
13 11 13 19 1 10 -16 4 -41 -10 -41 -5 0 -9 5 -9 10 0 6 -7 10 -15 10 -18 0
-18 1 -5 34 13 34 24 33 16 -1z m122 20 c-22 -5 -24 -23 -3 -23 20 0 19 -39
-1 -47 -8 -3 -21 0 -27 7 -10 10 -8 12 5 7 10 -3 20 -2 24 4 3 6 -3 13 -15 16
-36 9 -25 44 13 42 17 -1 18 -2 4 -6z m99 -5 c-2 -7 3 -18 11 -24 18 -13 9
-44 -13 -44 -22 0 -30 27 -17 56 12 25 27 34 19 12z m123 8 c0 -15 -34 -78
-37 -69 -2 7 1 21 6 32 9 16 8 22 -6 30 -15 9 -14 10 10 11 15 0 27 -2 27 -4z
m95 -36 c0 -28 -4 -35 -20 -35 -13 0 -21 8 -23 23 -5 34 5 54 25 50 13 -2 18
-13 18 -38z m110 29 c8 -13 -14 -69 -27 -69 -5 0 -6 5 -3 10 3 6 -1 17 -9 25
-8 9 -13 22 -10 30 7 17 40 20 49 4z m105 -9 c14 -26 -4 -63 -28 -58 -18 3
-28 39 -18 64 8 20 34 17 46 -6z"/>
<path d="M4777 1334 c-10 -10 -9 -42 2 -48 5 -3 11 0 14 7 6 16 -7 50 -16 41z"/>
<path d="M5385 1301 c-3 -5 -1 -12 5 -16 5 -3 10 1 10 9 0 18 -6 21 -15 7z"/>
<path d="M5586 1301 c-4 -5 -2 -12 3 -15 5 -4 12 -2 15 3 4 5 2 12 -3 15 -5 4
-12 2 -15 -3z"/>
<path d="M5690 1325 c0 -8 5 -15 10 -15 6 0 10 7 10 15 0 8 -4 15 -10 15 -5 0
-10 -7 -10 -15z"/>
<path d="M5796 1325 c-7 -19 3 -47 15 -39 5 3 9 14 9 24 0 24 -16 34 -24 15z"/>
</g>
</svg>
